<?xml version="1.0" encoding="UTF-8"?>
<!DOCTYPE svg PUBLIC "-//W3C//DTD SVG 1.1//EN" "http://www.w3.org/Graphics/SVG/1.1/DTD/svg11.dtd">
<!-- Creator: CorelDRAW 2018 (64-Bit) -->
<svg xmlns="http://www.w3.org/2000/svg" xml:space="preserve" width="3in" height="3in" version="1.1" style="shape-rendering:geometricPrecision; text-rendering:geometricPrecision; image-rendering:optimizeQuality; fill-rule:evenodd; clip-rule:evenodd"
viewBox="0 0 3000 3000"
 xmlns:xlink="http://www.w3.org/1999/xlink">
 <defs>
  <style type="text/css">
   <![CDATA[
    .fil0 {fill:none}
    .fil1 {fill:#F6903E}
   ]]>
  </style>
 </defs>
 <g id="Layer_x0020_1">
  <metadata id="CorelCorpID_0Corel-Layer"/>
  <rect class="fil0" width="3000" height="3000"/>
  <path class="fil1" d="M1446.8 134.77c135.74,0 215.33,-0.73 348.89,43.69 74.72,24.85 136.09,52.26 197.89,89.22 61.64,36.88 151.75,104.2 201.93,155.5 72.73,74.34 165.59,209.53 204,305.76l36.37 104.25c77.56,287.33 28.35,552.63 -123.74,805.59 -101.43,168.69 -231.52,360.7 -341.5,525.68 -78.55,117.83 -153.31,232.9 -230.87,349.22 -15.03,22.54 -223.75,333.71 -228.52,351.56l-23.44 0c-6.29,-23.55 -651.31,-994.55 -740.63,-1128.51 -55.87,-83.8 -118.91,-193.79 -153.48,-285.97 -7.5,-19.98 -9.47,-33.46 -16.24,-54.08 -80.02,-243.8 -67.37,-417.43 18.9,-659.21 53.23,-149.18 188.23,-311.11 318.07,-408.49 116.81,-87.62 198.92,-122.28 339.7,-164.21 21.32,-6.35 35.88,-10.5 61.19,-14.98 41.8,-7.41 87.24,-15.01 131.47,-15.01zm66.54 2865.23l-27.09 0c-25.08,-2.41 -49.66,-11.52 -70.75,-27.28 -39.2,-29.3 -87.87,-113.39 -117.53,-157.87l-474.57 -720.74c-13.92,-20.79 -24.04,-35.96 -37.54,-56.21 -105.47,-158.21 -281.04,-405.02 -332.68,-587.24 -53.67,-189.41 -61.06,-199.86 -61.06,-401.83 0,-124.62 52.52,-310.16 109.37,-423.83 74.32,-148.58 169.06,-267.78 290.77,-371.34l76.93 -57.84c28.3,-20.5 52.47,-33.44 82.87,-51.9 169.57,-102.92 362.57,-143.93 582.64,-143.93 200.57,0 445.56,85.35 598.57,198.31 163.31,120.56 267.27,232.9 366.28,430.6 8.7,17.37 15.75,29.1 23.02,47.3 106.2,266.02 112.87,506.11 22.23,779.2 -32.59,98.2 -44.63,110.72 -86.28,194.97 -51.13,103.39 -176.72,284.69 -247.63,391.04l-512.11 776.94c-29.17,43.75 -75.62,126.5 -118.52,156.87 -20.14,14.26 -43.27,22.5 -66.9,24.77z"/>
  <path class="fil1" d="M1676.14 1359.55c0,-38.75 24.17,-62.91 62.9,-62.91 24.85,0 50.32,28.57 50.32,56.61l0 18.87c0,20.03 -32.05,44.04 -56.61,44.04l-6.29 0c-21.17,0 -50.32,-28.19 -50.32,-56.61zm-534.82 -981.33c-126.24,66.8 -216.89,140.64 -299.43,254.13 -39.39,54.16 -71.04,112.66 -98.94,177.85 -68.08,159.12 -66.83,342.48 -25.61,507.83 13.93,55.82 27.52,92.01 50.71,138 42.24,83.74 88.57,157.35 151.52,219.62 104.71,103.61 307.67,237.45 511.13,237.45l0 -308.22 -132.11 0 0 157.25c-106.63,-8.87 -266.5,-146.8 -325.57,-215.41 -66.7,-77.47 -158.8,-249.52 -158.8,-388.48l0 -62.89c0,-350.76 305.91,-673.08 647.93,-673.08l50.32 0c368.31,0 673.08,304.78 673.08,673.08l0 50.32c0,131.16 -67.52,283.55 -124.71,359.64 -100.22,133.31 -211.16,197.43 -359.66,256.83l0 -157.25 -132.1 0 0 308.22 31.46 0c89.73,0 216.78,-58.18 280.94,-90.19 87.57,-43.68 149.01,-97.93 214.49,-162.94 107.63,-106.84 215.39,-318.78 215.39,-533.17l0 -69.2c0,-77 -23.95,-160.18 -44.9,-219.3 -26.29,-74.19 -67.79,-160.02 -118.66,-221.04 -96.41,-143.98 -357.46,-320.82 -597.59,-320.82l-88.06 0c-107.83,0 -223.49,36.87 -320.82,81.78zm69.32 962.45c0,-20.86 35.09,-44.04 56.61,-44.04 29.26,0 56.61,24.99 56.61,56.61l0 6.3c0,31.61 -27.35,56.61 -56.61,56.61 -29.26,0 -56.61,-25 -56.61,-56.61l0 -18.88zm25.16 -150.97c0,-58.18 17.49,-105.93 25.12,-157.31 8.29,-55.78 8.08,-100.61 75.54,-100.61l345.97 0c53.42,0 49.85,66.35 59.12,117.01 6.5,35.5 28.94,114.88 28.94,140.91 0,21.24 -40.86,37.74 -69.19,37.74l-402.59 0c-29.87,0 -62.91,-7.89 -62.91,-37.74zm106.94 -364.85c0,-14.72 10.44,-25.16 25.17,-25.16l264.2 0c14.67,0 31.45,16.78 31.45,31.46 0,14.67 -16.78,31.45 -31.45,31.45l-251.62 0c-19.31,0 -37.74,-5.83 -37.74,-25.17l0 -12.58zm-245.33 509.54l0 18.87c0,70.93 79.55,157.27 144.69,157.27l496.94 0c86.11,0 163.56,-75.71 163.56,-157.27l0 -18.87c0,-67.08 -44.84,-265.57 -60.31,-342.29 -20.75,-102.85 -30.48,-261.59 -147.28,-261.59l-377.43 0c-125.33,0 -140.15,141.97 -157.41,251.47 -14.61,92.69 -62.76,267.85 -62.76,352.42z"/>
 </g>
</svg>
