<svg width="10" height="15" viewBox="0 0 10 15" fill="none" xmlns="http://www.w3.org/2000/svg">
<path d="M9.16366 0.421456C9.16366 0.310985 9.11977 0.205039 9.04166 0.126925C8.96354 0.0488101 8.8576 0.00492573 8.74713 0.00492573H6.66448C5.61576 -0.0473147 4.58899 0.317649 3.80852 1.02008C3.02804 1.7225 2.55731 2.70529 2.49918 3.75369V6.00295H0.41653C0.306059 6.00295 0.200113 6.04684 0.121999 6.12495C0.0438843 6.20307 0 6.30901 0 6.41949V8.58544C0 8.69591 0.0438843 8.80186 0.121999 8.87997C0.200113 8.95809 0.306059 9.00197 0.41653 9.00197H2.49918V14.5835C2.49918 14.6939 2.54306 14.7999 2.62118 14.878C2.69929 14.9561 2.80524 15 2.91571 15H5.41489C5.52536 15 5.6313 14.9561 5.70942 14.878C5.78753 14.7999 5.83142 14.6939 5.83142 14.5835V9.00197H8.01403C8.10666 9.0033 8.19709 8.97371 8.27102 8.91789C8.34495 8.86207 8.39816 8.78319 8.42223 8.69374L9.02204 6.52778C9.03861 6.46624 9.04084 6.40171 9.02855 6.33917C9.01626 6.27663 8.98978 6.21774 8.95115 6.16704C8.91253 6.11635 8.86278 6.07519 8.80574 6.04674C8.74871 6.01829 8.6859 6.00331 8.62217 6.00295H5.83142V3.75369C5.85214 3.54749 5.94897 3.35642 6.10301 3.21778C6.25706 3.07914 6.45724 3.0029 6.66448 3.00394H8.74713C8.8576 3.00394 8.96354 2.96006 9.04166 2.88194C9.11977 2.80383 9.16366 2.69788 9.16366 2.58741V0.421456Z" fill="#F8FBFF"/>
</svg>
