<svg width="22" height="15" viewBox="0 0 22 15" fill="none" xmlns="http://www.w3.org/2000/svg">
<path fill-rule="evenodd" clip-rule="evenodd" d="M1.25002 11.75V3.24998C1.25002 2.06357 2.06364 1.24995 3.25005 1.24995H18.0834C19.2698 1.24995 20.0834 2.06357 20.0834 3.24998V11.75C20.0834 12.9364 19.2698 13.75 18.0834 13.75H3.25005C2.06364 13.75 1.25002 12.9364 1.25002 11.75ZM9.4167 9.45833V5.54167L11.767 6.9831C11.9289 7.08946 12.4595 7.38784 12.5417 7.5C12.4554 7.61783 12.3086 7.67191 12.1749 7.75814C12.0407 7.84464 11.9176 7.91677 11.7917 7.99995L10.9981 8.49797C10.8267 8.60059 9.5624 9.41939 9.4167 9.45826V9.45833ZM8.16667 4.29165V10.7083C8.16667 11.0471 8.47045 11.25 8.87498 11.25C9.06113 11.25 9.44871 10.958 9.6117 10.8617L13.8669 8.20028C14.312 7.92043 14.4167 7.8983 14.4167 7.41668C14.4167 7.01305 13.6545 6.67649 13.1748 6.36684C12.8319 6.14556 9.11831 3.75 8.87498 3.75C8.47045 3.75 8.16667 3.95296 8.16667 4.29165ZM0 2.91667V12.0833C0 13.5362 1.46383 15 2.91667 15H18.4167C19.1946 15 20.0278 14.4955 20.4283 14.095C20.8264 13.6969 21.3334 12.855 21.3334 12.0833V2.91667C21.3334 2.13881 20.8289 1.30555 20.4283 0.905034C20.0278 0.504518 19.1946 0 18.4167 0H2.91667C2.13431 0 1.30873 0.502997 0.905864 0.905864C0.502997 1.30873 0 2.13431 0 2.91667Z" fill="white"/>
</svg>
