<?xml version="1.0" encoding="UTF-8"?>
<!DOCTYPE svg PUBLIC "-//W3C//DTD SVG 1.1//EN" "http://www.w3.org/Graphics/SVG/1.1/DTD/svg11.dtd">
<!-- Creator: CorelDRAW 2018 (64-Bit) -->
<svg xmlns="http://www.w3.org/2000/svg" xml:space="preserve" width="0.137654in" height="0.16in" version="1.1" style="shape-rendering:geometricPrecision; text-rendering:geometricPrecision; image-rendering:optimizeQuality; fill-rule:evenodd; clip-rule:evenodd"
viewBox="0 0 23.57 27.39"
 xmlns:xlink="http://www.w3.org/1999/xlink">
 <defs>
  <style type="text/css">
   <![CDATA[
    .fil0 {fill:#FEFEFE}
   ]]>
  </style>
 </defs>
 <g id="Layer_x0020_1">
  <metadata id="CorelCorpID_0Corel-Layer"/>
  <path class="fil0" d="M18.34 12.7c-0.12,-0.06 -0.24,-0.11 -0.36,-0.16 -0.21,-3.9 -2.34,-6.13 -5.92,-6.15 -0.02,0 -0.03,0 -0.05,0 -2.14,0 -3.92,0.91 -5.01,2.57l1.97 1.35c0.82,-1.24 2.1,-1.5 3.05,-1.5 0.01,0 0.02,0 0.03,0 1.18,0.01 2.07,0.35 2.64,1.02 0.42,0.49 0.7,1.16 0.84,2 -1.04,-0.18 -2.17,-0.23 -3.38,-0.16 -3.4,0.2 -5.58,2.18 -5.44,4.93 0.07,1.4 0.77,2.6 1.96,3.38 1.01,0.66 2.3,0.99 3.65,0.91 1.78,-0.1 3.17,-0.78 4.14,-2.02 0.74,-0.94 1.21,-2.16 1.41,-3.7 0.85,0.51 1.47,1.18 1.82,1.99 0.59,1.38 0.62,3.63 -1.22,5.48 -1.62,1.61 -3.56,2.31 -6.49,2.33 -3.25,-0.02 -5.72,-1.07 -7.32,-3.1 -1.5,-1.9 -2.27,-4.66 -2.3,-8.18 0.03,-3.52 0.8,-6.27 2.3,-8.18 1.6,-2.03 4.06,-3.08 7.32,-3.1 3.28,0.02 5.78,1.07 7.44,3.12 0.81,1 1.43,2.26 1.83,3.73l2.3 -0.61c-0.49,-1.81 -1.26,-3.37 -2.31,-4.66 -2.13,-2.62 -5.25,-3.96 -9.26,-3.99l-0.02 0c-4.01,0.03 -7.09,1.38 -9.16,4.01 -1.84,2.34 -2.79,5.6 -2.82,9.68l0 0.01 0 0.01c0.03,4.08 0.98,7.34 2.82,9.68 2.07,2.63 5.15,3.98 9.16,4.01l0.02 0c3.56,-0.02 6.07,-0.96 8.14,-3.02 2.71,-2.7 2.62,-6.09 1.73,-8.17 -0.64,-1.49 -1.86,-2.7 -3.53,-3.5zm-6.15 5.78c-1.49,0.08 -3.04,-0.58 -3.11,-2.02 -0.06,-1.06 0.76,-2.25 3.21,-2.39 0.28,-0.02 0.56,-0.02 0.83,-0.02 0.89,0 1.72,0.09 2.48,0.25 -0.28,3.52 -1.94,4.1 -3.4,4.18z"/>
 </g>
</svg>
