<svg width="40" height="40" viewBox="0 0 40 40" fill="none" xmlns="http://www.w3.org/2000/svg">
<path fill-rule="evenodd" clip-rule="evenodd" d="M1.24988 20.5465C1.2058 20.319 1.30486 18.6146 1.33899 18.2923C1.6466 15.4171 2.45 12.8192 3.93781 10.3446C4.07811 10.1109 4.24163 9.84406 4.39568 9.63077C4.57484 9.38335 4.69144 9.18286 4.87534 8.93876C5.42421 8.2112 6.91535 6.52147 7.67845 5.88255C8.11072 5.5209 8.54157 5.15641 8.98379 4.84406C11.7348 2.9017 14.9336 1.60442 18.3624 1.33235C21.5551 1.07878 24.3336 1.57408 27.3206 2.75666C29.6241 3.66907 31.8713 5.27254 33.534 7.09025C33.7326 7.30733 33.9279 7.45379 34.1165 7.6794C34.4782 8.11167 34.8426 8.54252 35.155 8.98474C36.9613 11.5433 38.078 14.1464 38.5283 17.3301L38.6596 21.7077C38.5923 22.3377 38.4814 23.1302 38.3529 23.7449C37.6917 26.9215 36.2105 29.945 34.08 32.3628L33.2434 33.2449C32.0229 34.3729 31.1157 35.2204 29.6052 36.0906C27.9576 37.0395 26.5755 37.6339 24.6355 38.1524L21.6352 38.6681C21.2276 38.7004 20.919 38.6553 20.5124 38.7174C20.1223 38.7767 19.7881 38.761 19.4184 38.7051C18.6629 38.5904 18.0595 38.7307 16.2532 38.3543C12.5851 37.5908 9.38241 35.8541 6.7632 33.2349C6.07641 32.5481 5.4062 31.7992 4.84122 31.0162C2.93725 28.3799 1.33425 24.4374 1.32998 21.0902C1.32951 20.7285 1.28638 20.7441 1.24846 20.547L1.24988 20.5465ZM30.6247 7.42156C30.6247 7.85051 32.0708 9.29662 32.4998 9.29662C33.0297 9.29662 33.1249 8.92217 33.1249 8.5155C33.1249 8.32828 31.8011 6.79685 31.2499 6.79685C30.8721 6.79685 30.6247 7.04332 30.6247 7.42156ZM19.3748 5.6247C19.3748 6.95658 19.125 8.12447 20 8.12447C20.875 8.12447 20.6252 6.95658 20.6252 5.6247C20.6252 4.78624 19.3748 4.78624 19.3748 5.6247ZM19.3748 32.4993C19.3748 33.8312 19.125 34.9991 20 34.9991C20.875 34.9991 20.6252 33.8312 20.6252 32.4993C20.6252 31.6608 19.3748 31.6608 19.3748 32.4993ZM31.8746 19.9995C31.8746 20.8745 33.0425 20.6247 34.3744 20.6247C35.2128 20.6247 35.2128 19.3748 34.3744 19.3748C33.0425 19.3748 31.8746 19.1246 31.8746 19.9995ZM5 19.9995C5 20.8745 6.16788 20.6247 7.49976 20.6247C8.33823 20.6247 8.33823 19.3748 7.49976 19.3748C6.16788 19.3748 5 19.1246 5 19.9995ZM25.6247 30.7806C25.6247 31.2124 26.2414 32.1035 26.4783 32.505C27.1144 33.5833 27.8121 32.9662 27.8121 32.4211C27.8121 32.313 26.8917 30.1555 26.2494 30.1555C25.9418 30.1555 25.6247 30.4105 25.6247 30.7806ZM30.1559 13.7496C30.1559 14.0369 30.3906 14.3748 30.8589 14.3748C30.9584 14.3748 33.0197 13.5055 33.0918 12.8695C33.1174 12.6415 32.9591 12.1874 32.4216 12.1874C32.3268 12.1874 30.1559 13.0956 30.1559 13.7496ZM12.1874 32.4216C12.1874 32.9591 12.6415 33.1174 12.8695 33.0918C13.4781 33.023 14.3748 31.047 14.3748 30.7806C14.3748 30.4105 14.0573 30.1555 13.7496 30.1555C13.0922 30.1555 12.1874 32.3306 12.1874 32.4216ZM25.6247 9.14068C25.6247 9.58906 25.9072 9.84359 26.2499 9.84359C26.9073 9.84359 27.8126 7.66897 27.8126 7.57797C27.8126 7.04048 27.3585 6.8817 27.1305 6.90776C26.7646 6.949 26.6262 7.24429 26.4783 7.49408C26.329 7.74718 26.1722 8.03346 26.02 8.28562C25.8878 8.50412 25.6247 8.84065 25.6247 9.14068ZM7.42156 27.8126C7.95478 27.8126 8.34297 27.4727 8.83164 27.1917C9.16864 26.9978 9.84311 26.7405 9.84311 26.2504C9.84311 25.9077 9.58811 25.6252 9.1402 25.6252C8.82596 25.6252 7.77088 26.3162 7.49408 26.4788C6.30249 27.177 7.24287 27.8126 7.42156 27.8126ZM30.1559 26.2499C30.1559 26.722 30.7735 26.9718 31.1176 27.1632C31.6518 27.4609 32.0291 27.8121 32.578 27.8121C32.7571 27.8121 33.697 27.1765 32.5055 26.4783C32.1078 26.2451 31.2172 25.6247 30.7811 25.6247C30.4109 25.6247 30.1559 25.9423 30.1559 26.2499ZM9.14068 14.3748C9.60944 14.3748 9.84359 14.0374 9.84359 13.7496C9.84359 13.2776 9.22599 13.0278 8.88189 12.8363C8.34771 12.5386 7.97042 12.1874 7.42156 12.1874C7.18931 12.1874 6.32809 12.8382 7.49408 13.5212C7.77135 13.6838 8.8269 14.3748 9.14068 14.3748ZM12.1874 7.42156C12.1874 7.95478 12.5273 8.34297 12.8083 8.83164C13.0022 9.16864 13.2596 9.84311 13.7496 9.84311C14.0369 9.84311 14.3748 9.60849 14.3748 9.1402C14.3748 8.82596 13.6838 7.77088 13.5212 7.49408C12.8377 6.32856 12.1874 7.18931 12.1874 7.42156ZM19.3748 19.9995C19.3748 19.2104 20.6247 19.2104 20.6247 19.9995C20.6247 20.7887 19.3748 20.7887 19.3748 19.9995ZM19.3748 18.2027C18.5089 18.661 18.1249 19.016 18.1249 20.1559C18.1249 20.6512 18.4809 21.2281 18.779 21.4551C19.281 21.8376 19.5469 21.8746 20.3906 21.8746C20.4323 22.0538 23.6288 27.7496 23.8828 27.9918C24.4018 28.4871 25 27.9624 25 27.5775C25 27.2078 23.5501 24.8521 23.2771 24.3786C23.0486 23.9814 21.5746 21.5584 21.4845 21.1717C21.9992 20.4029 22.0386 19.5957 21.4878 18.8245C21.2655 18.5131 20.9688 18.3852 20.6247 18.2031V11.1721C20.6247 10.347 20.8247 9.3753 19.9995 9.3753C19.1881 9.3753 19.3744 10.2882 19.3744 11.0939L19.3748 18.2027ZM33.3591 10.6247C33.3591 10.8299 34.3402 12.2756 34.6422 13.0136C35.2299 14.4492 35.6631 15.2631 35.9598 17.0865C36.4039 19.8142 36.3433 22.2846 35.4588 24.9118C34.7455 27.031 33.7928 28.8463 32.3263 30.529C32.1822 30.6939 32.1647 30.7541 32.0125 30.9186L30.4887 32.3633C25.9954 36.366 18.5752 37.4358 13.1766 34.7137C12.8334 34.5407 12.5822 34.4199 12.2386 34.2454L10.019 32.7932C9.0127 31.9367 8.31169 33.0946 9.0473 33.6866C11.7428 35.8555 15.8408 37.4993 19.2966 37.4993C22.9842 37.4993 24.2312 37.1974 27.3765 35.8916C28.7515 35.3209 30.0882 34.3544 31.2385 33.4259L33.3923 31.2826C34.2871 30.1375 34.3587 30.1071 35.1417 28.8132C35.9328 27.5059 36.5987 25.8494 36.985 24.3284C38.1325 19.8128 37.3789 14.6246 34.9062 10.7958C34.4985 10.1649 34.5611 9.99953 33.9056 9.99953C33.6473 9.99953 33.3591 10.3631 33.3591 10.6247ZM2.49976 19.2966C2.49976 22.3595 2.79647 24.6123 4.03593 27.2135C4.14968 27.4524 4.21462 27.6183 4.34117 27.8458C4.75164 28.5828 4.92037 29.008 5.45644 29.7772L6.776 31.5049C7.38933 32.2192 8.04626 31.8006 8.04626 31.2504C8.04626 30.8887 6.91156 29.6294 6.48355 28.9852C3.47663 24.4578 2.8671 18.3525 5.18153 13.3856C7.90549 7.54053 13.5833 3.75059 20.0777 3.75059C25.4868 3.75059 29.0653 6.64139 29.3744 6.64139C29.9815 6.64139 30.2484 5.78586 29.7355 5.42089C29.5862 5.31472 29.4232 5.23889 29.2497 5.12513C28.8923 4.89051 28.633 4.76633 28.2558 4.55683C24.5706 2.50972 19.8971 1.95801 15.7328 2.99981C14.691 3.2605 12.8292 3.92359 11.9277 4.42886C11.6646 4.57626 11.4973 4.66869 11.2243 4.81894C10.2455 5.35833 8.40127 6.78785 7.63343 7.55617L6.64044 8.67239C6.47834 8.88283 6.35274 9.00085 6.18258 9.22978C4.0364 12.1149 2.49976 15.5773 2.49976 19.2966ZM19.5047 0H20.747C23.4724 0.0796284 26.1551 0.684899 28.4634 1.84852C31.8973 3.57949 34.1004 5.34837 36.3726 8.47047C37.0917 9.45872 37.5803 10.4038 38.151 11.5357C39.0672 13.3534 39.9995 16.6006 39.9995 19.2966V20.7029C39.9995 23.4302 39.0416 26.7002 38.1249 28.5155C36.4238 31.8855 34.6071 34.1464 31.5295 36.3731C30.5342 37.0931 29.6014 37.578 28.4638 38.1515C26.6461 39.0677 23.3989 40 20.7029 40H19.2966C16.5594 40 13.3065 39.0454 11.484 38.1254C9.42743 37.0869 6.6139 35.2972 5.20144 33.4705C3.91601 31.8087 4.03688 32.3016 2.65191 30.0047C2.35141 29.5066 2.10162 28.971 1.82197 28.4126C0.410939 25.5925 0 22.7273 0 19.2189C0 15.4972 1.68025 11.0726 3.69324 8.38089C5.60906 5.81998 7.14191 4.37245 9.99526 2.65191C12.7296 1.00294 16.1115 0.0990615 19.5047 0Z" fill="#8FC74A"/>
</svg>
