<?xml version="1.0" encoding="UTF-8"?>
<!DOCTYPE svg PUBLIC "-//W3C//DTD SVG 1.1//EN" "http://www.w3.org/Graphics/SVG/1.1/DTD/svg11.dtd">
<!-- Creator: CorelDRAW 2018 (64-Bit) -->
<svg xmlns="http://www.w3.org/2000/svg" xml:space="preserve" width="1.93333in" height="1.93335in" version="1.1" style="shape-rendering:geometricPrecision; text-rendering:geometricPrecision; image-rendering:optimizeQuality; fill-rule:evenodd; clip-rule:evenodd"
viewBox="0 0 4684.91 4684.94"
 xmlns:xlink="http://www.w3.org/1999/xlink">
 <defs>
  <style type="text/css">
   <![CDATA[
    .fil1 {fill:none}
    .fil0 {fill:#373435}
   ]]>
  </style>
 </defs>
 <g id="Layer_x0020_1">
  <metadata id="CorelCorpID_0Corel-Layer"/>
  <g id="_2828166669968">
   <path class="fil0" d="M1250.81 4440.94l0 -1151.72c0,-48.24 39.6,-87.85 87.84,-87.85l2010.62 0c48.24,0 87.84,39.61 87.84,87.85l0 1151.72c0,48.24 -39.6,87.84 -87.84,87.84l-2010.62 0c-48.24,0 -87.84,-39.6 -87.84,-87.84zm-156.16 -1181l0 331.85 -312.33 0c-104.77,0 -104.77,156.16 0,156.16l312.33 0 0 624.66 -429.46 0c-416.7,0 -385.25,-416.57 -289.26,-708.95 99.71,-303.7 232.59,-487.85 433.08,-689.36 197.03,-198.03 459.85,-336.08 745.98,-376.45 167.2,-23.59 190.78,-35.78 281.94,17.39 16.21,9.44 25.57,13.2 44.13,24.18 33.01,19.53 62.79,36.8 92.5,53.9 61.35,35.33 117.58,64.87 180.79,102.26 237.22,140.32 156.53,123.29 553.74,-98.74 30.77,-17.2 57.07,-32.12 86.71,-49.93 137.52,-82.68 101.54,-69.57 203.67,-61.15 57.42,4.73 81.7,4.65 134.45,12.09 561.85,79.25 1006.35,539.7 1179.06,1065.81 36.71,111.81 79.58,345.83 48.3,480.41 -15.56,66.97 -69.63,130.32 -116.9,166.15 -56.93,43.15 -124.71,62.38 -220.67,62.38l-429.46 0 0 -624.66 312.33 0c104.77,0 104.77,-156.16 0,-156.16l-312.33 0 0 -331.85c0,-107.38 -107.35,-214.73 -214.72,-214.73l-2069.18 0c-107.38,0 -214.72,107.36 -214.72,214.73zm839.38 -907.71c87.82,20.46 140.98,68.32 292.81,68.32 127.19,0 273.88,9.92 388.64,-21.28 43.72,-11.88 97.22,-37.44 138.41,-47.03 15.8,32.93 23.24,74.43 39.04,107.37l-448.96 253.76 -448.97 -253.76c15.8,-32.93 23.24,-74.43 39.04,-107.37zm-292.81 -1181c92.45,7.7 217.09,78.09 585.62,78.09 234.54,0 457.18,4.46 687.19,-44.84 46.26,-9.91 92.39,-29.89 132.68,-33.25 0,143.15 -0.7,286.47 0.13,429.59 2.21,384.84 -270.92,663.56 -654.07,663.56 -200.9,0 -270.02,0.23 -439.46,-87.59 -190.78,-98.88 -313.29,-331.09 -312.31,-566.12 0.62,-146.47 0.23,-292.96 0.23,-439.44zm1629.97 468.49l-68.33 0 0 -312.33c172.43,0 156.16,27.35 156.16,224.49 0,48.24 -39.6,87.84 -87.84,87.84zm-1942.3 -87.84c0,-197.14 -16.27,-224.49 156.16,-224.49l0 312.33c-51.68,0 -156.16,11.29 -156.16,-87.84zm312.33 -575.86l0 -370.89c51.96,1.15 433.2,110.51 521.31,132.63 187.09,46.96 143.78,65.84 355.95,2.84 71.97,-21.37 481.37,-134.43 528.23,-135.47 0,438.99 41.43,394.94 -140.71,435.15 -102.63,22.66 -260.34,44.08 -366.79,43.14 -80.54,-0.72 -118.73,9.98 -195.24,9.98 -72.74,0 -702.75,-26.57 -702.75,-117.38zm-136.65 -595.37c71.1,-1.59 785.23,-214.73 839.39,-214.73 57.67,0 769.58,213.17 839.38,214.73l0 19.52c-47.44,1.05 -363.73,92.64 -419.62,107.43l-419.76 107.29 -839.39 -234.24zm-409.93 9.75c0,80.5 98.08,90.74 165.91,107.37 75.32,18.46 147.48,40.62 224.49,58.57l0 614.89 -97.61 0c-107.37,0 -214.72,107.36 -214.72,214.73 0,142.67 -24.86,285.51 93.22,365.52 79.22,53.68 107.11,44.41 228.87,44.41 30.46,63.49 24.77,130.54 109.15,261.74 51.16,79.55 106.79,145.53 183.66,197.01 -4.34,52.21 -36.48,113.03 -48.8,165.91 -119.77,0 -245.51,19.45 -345.67,44.75 -203.66,51.42 -362.01,127.44 -528.59,252.23 -84.97,63.65 -138.35,115.38 -211.57,188.6 -71.71,71.71 -118.83,127.88 -180.33,210.09l-181.65 316.13c-109.65,233.95 -223.25,689.25 -38.09,913.33 52.72,63.81 110.11,117.32 191.7,149.91 136.77,54.65 489.88,33.2 659.79,33.2 41.79,78.98 100.73,156.16 204.96,156.16l2069.18 0c108.17,0 164.94,-80.52 204.97,-156.16 170.63,0 523.46,21.27 659.78,-33.2 143.44,-57.31 286.96,-219.31 286.96,-415.77 0,-369.7 -105.44,-674.25 -306.66,-952.4 -128.18,-177.18 -367.81,-417.97 -565.27,-518.12 -136.72,-69.34 -184.61,-97.37 -355.76,-142.03 -93.5,-24.4 -232.9,-46.7 -353.48,-46.7 -12.32,-52.88 -44.46,-113.7 -48.8,-165.91 228.99,-153.35 252.86,-375.5 292.81,-458.74 118.04,0 146.05,9.4 222.97,-40.56 124.85,-81.06 99.12,-220.08 99.12,-369.37 0,-107.38 -107.36,-214.73 -214.72,-214.73l-97.61 0 0 -614.89c39.26,-9.15 77.95,-19.56 117.14,-29.27 35.24,-8.73 82.95,-26.46 117.1,-29.3 0,97.61 0,195.21 0,292.81 0,103.1 -24.97,224.48 78.09,224.48 47.21,0 78.08,-30.86 78.08,-78.08l0 -546.58c0,-88.83 -149.03,-106.15 -273.28,-136.64l-486.01 -128.89c-71.79,-19.69 -443.17,-124.88 -490.02,-124.88 -48.72,0 -122.58,27.66 -165.86,39.12 -55.65,14.73 -104.13,28.47 -161.98,42.98l-810.13 214.7c-56.63,15.8 -111.34,26.39 -111.34,93.61z"/>
   <path class="fil0" d="M2148.75 3865.08c0,-99.96 95.24,-195.21 195.21,-195.21 99.96,0 195.2,95.25 195.2,195.21 0,99.96 -95.24,195.2 -195.2,195.2 -99.97,0 -195.21,-95.24 -195.21,-195.2zm-156.16 -39.05c0,110.3 9.88,207.94 104.78,295.4 224.71,207.1 597.96,54.26 597.96,-236.83 0,-107.41 -19.65,-190.99 -99.78,-271.12 -134.78,-134.78 -368.4,-134.78 -503.18,0 -39.17,39.18 -99.78,138.67 -99.78,212.55z"/>
   <path class="fil0" d="M2031.64 1483.56c0,64.19 -14.75,156.16 78.08,156.16 92.83,0 78.09,-91.98 78.09,-156.16 0,-104.76 -156.16,-104.76 -156.16,0z"/>
   <path class="fil0" d="M2500.13 1483.56c0,64.19 -14.75,156.16 78.08,156.16 92.83,0 78.09,-91.98 78.09,-156.16 0,-104.76 -156.16,-104.76 -156.16,0z"/>
  </g>
  <rect class="fil1" x="-0" y="0" width="4684.91" height="4684.91"/>
 </g>
</svg>
