<svg width="40" height="40" viewBox="0 0 40 40" fill="none" xmlns="http://www.w3.org/2000/svg">
<path fill-rule="evenodd" clip-rule="evenodd" d="M19.1424 6.71854C19.1424 7.1957 19.4902 7.57788 20.0017 7.57788C20.4474 7.57788 21.424 6.42904 21.7399 6.11322L25.7608 2.08771C26.0074 1.8457 26.4994 1.56249 26.8764 1.56249C28.0568 1.56249 29.0923 2.95849 30.0598 3.92597C31.0032 4.86941 31.8895 5.75564 32.8335 6.69966L37.0135 10.8791C37.533 11.3986 38.0485 11.7619 38.0485 12.7345C38.0485 13.7329 36.7223 14.7249 36.0758 15.3715C35.2885 16.1587 34.5585 16.8888 33.7712 17.676L24.4741 26.9731C23.6994 27.7478 22.9631 28.5356 22.1718 29.28C21.7656 29.6622 21.1151 29.8704 20.4274 29.653C19.9262 29.4945 19.3935 28.9699 19.1418 28.594C20.3387 26.8066 23.5833 25.2413 23.5873 22.8126C23.589 21.7032 22.9585 20.7386 22.0974 20.1693C21.7376 19.9313 21.0487 19.6882 20.4691 19.6882C18.6961 19.6882 17.656 21.2123 16.2697 22.5986C15.3205 23.5478 15.5563 23.7509 14.3754 23.7509C14.1053 23.7509 11.2172 20.7094 10.8013 20.2941C10.2223 19.7151 9.92248 19.4702 9.92248 18.5165C9.92248 17.6777 10.7332 17.1193 11.192 16.661L14.3559 13.4972C14.7164 13.1367 15.7817 12.2842 15.7817 11.7195C15.7817 11.2653 15.3434 10.938 14.9223 10.938C14.4412 10.938 13.357 12.2299 12.9885 12.5983C12.0834 13.5034 9.09117 16.276 8.61802 17.212C8.12255 18.1926 8.26673 19.627 8.82684 20.4703C9.41099 21.3497 10.4322 22.1901 11.1915 22.9493C11.406 23.1639 11.5628 23.3212 11.7773 23.5352C11.993 23.7509 12.2596 23.9048 12.3437 24.2189C11.4524 24.2933 10.002 25.5274 9.36293 26.3158C8.55108 27.3176 7.95892 28.5682 7.89026 29.9991C7.82333 31.3871 8.08593 30.7812 6.66018 32.207L1.54304 37.3241C1.17859 37.6886 0 38.6675 0 39.2185C0 39.651 0.431959 40 0.859341 40C1.35881 40 2.96192 38.1709 3.37901 37.7538C4.19258 36.9402 4.94836 36.1845 5.76194 35.3709C6.31118 34.8216 8.96301 32.2928 9.31544 31.8151C9.83437 31.1108 8.67237 29.1798 11.307 26.6196C12.2293 25.723 13.4972 25.3769 14.8445 25.3918C15.8606 25.4026 15.9556 25.1795 16.4648 24.668L18.8477 22.2851C19.3701 21.7627 19.6561 21.3279 20.547 21.3279C21.3783 21.3279 21.9533 22.0969 21.9533 22.8904C21.9533 23.6788 21.158 24.2715 20.7226 24.7069C20.1682 25.2613 16.1719 29.0614 16.1719 29.4533C16.1719 29.9253 16.4488 30.3007 16.9025 30.3613C17.4185 30.4305 17.6611 29.9711 17.9684 29.7657C19.0045 30.4597 19.0045 31.3282 21.0933 31.3282C22.8584 31.3282 24.1405 29.57 25.5663 28.1449C25.9073 27.8039 26.5303 27.1064 26.8747 26.8753C26.6962 27.642 26.2889 28.4979 26.0245 29.2279C25.7396 30.0134 25.4576 30.799 25.156 31.5628C24.7939 32.4799 24.668 32.9508 24.0747 33.6842C22.939 35.0894 21.5202 35.4155 19.8158 35.9098C18.9627 36.157 18.132 36.3973 17.3264 36.6239C16.8069 36.7697 15.1924 37.1542 14.8737 37.3739C14.5356 37.6068 13.3593 38.7367 13.3593 39.1407C13.3593 39.6962 13.6631 40 14.2186 40C14.9401 40 15.3417 38.8409 16.1238 38.624C17.9243 38.124 22.2851 37.0856 23.6262 36.2045C25.5194 34.9612 26.2116 33.4274 26.9628 31.3379C27.3765 30.1862 29.3967 24.4724 29.6398 24.093C29.919 23.6582 37.4655 16.2371 38.6921 15.0207C39.9067 13.8158 39.9954 11.6749 38.8094 10.4088C37.3007 8.79766 35.6816 7.28381 34.1208 5.72246L29.4333 1.03499C28.8137 0.409646 28.0201 0.0526361 27.1951 0H26.7717C26.3043 0.0291787 25.8352 0.156764 25.3889 0.389049C24.557 0.822153 20.9057 4.68004 19.9022 5.68355C19.651 5.93472 19.1407 6.29059 19.1407 6.71854H19.1424ZM16.6422 9.29656C16.6422 10.2858 18.283 10.2989 18.283 9.21818C18.283 8.26616 16.6422 8.11111 16.6422 9.29656ZM13.9858 17.8906C13.9858 18.4993 14.2363 18.7499 14.8451 18.7499C15.2868 18.7499 16.1644 17.704 16.6227 17.2458C16.8922 16.9763 18.2047 15.7719 18.2047 15.4681C18.2047 14.7593 17.7401 14.6088 17.2669 14.6088C16.8247 14.6088 15.9476 15.6547 15.4893 16.1129C15.031 16.5712 13.9852 17.4483 13.9852 17.8906H13.9858ZM25.9387 8.5156C25.9387 6.77632 28.2827 6.94968 28.2827 8.35941C28.2827 10.1839 25.9387 9.80519 25.9387 8.5156ZM29.923 8.5156C29.923 7.26607 29.2811 6.37641 28.3102 5.90955C25.7042 4.65601 22.9539 7.79987 25.1108 10.359C25.8455 11.2304 27.2094 11.3831 28.1952 11.0067C29.0385 10.6846 29.923 9.68905 29.923 8.5156ZM25.8603 21.4063C26.4794 21.4063 26.8164 20.8799 27.2077 20.4886L32.7934 14.9029C33.2328 14.4635 34.844 13.06 34.844 12.5005C34.844 12.1309 34.499 11.719 33.9846 11.719C33.5126 11.719 31.8397 13.591 31.426 14.0041C30.5999 14.8302 29.8304 15.5997 29.0042 16.4259L25.3689 20.0566C24.7819 20.7129 25.3443 21.4063 25.8598 21.4063H25.8603Z" fill="#117FBF"/>
</svg>
