<?xml version="1.0" encoding="UTF-8"?>
<!DOCTYPE svg PUBLIC "-//W3C//DTD SVG 1.1//EN" "http://www.w3.org/Graphics/SVG/1.1/DTD/svg11.dtd">
<!-- Creator: CorelDRAW 2018 (64-Bit) -->
<svg xmlns="http://www.w3.org/2000/svg" xml:space="preserve" width="1.5625in" height="0.417465in" version="1.1" style="shape-rendering:geometricPrecision; text-rendering:geometricPrecision; image-rendering:optimizeQuality; fill-rule:evenodd; clip-rule:evenodd"
viewBox="0 0 1031.6 275.62"
 xmlns:xlink="http://www.w3.org/1999/xlink">
 <defs>
  <style type="text/css">
   <![CDATA[
    .fil2 {fill:none}
    .fil0 {fill:#117FBF}
    .fil1 {fill:white}
   ]]>
  </style>
   <clipPath id="id0">
    <path d="M42.98 255.93l244.99 0 0 -236.24 -244.99 0 0 236.24z"/>
   </clipPath>
 </defs>
 <g id="Layer_x0020_1">
  <metadata id="CorelCorpID_0Corel-Layer"/>
  <path id="Rectangle_x0020_1.svg" class="fil0" d="M137.55 0l756.51 0c75.95,0 137.55,61.6 137.55,137.55l0 0.53c0,75.95 -61.6,137.54 -137.55,137.54l-756.51 0.01c-75.95,-0.01 -137.54,-61.6 -137.54,-137.55l-0 -0.53c0,-75.95 61.6,-137.55 137.55,-137.55z"/>
  <path id="_18002705501.svg" class="fil1" d="M340.11 71.52c1.74,-0.72 3.54,-1.53 5.39,-2.43 1.92,-0.96 3.77,-1.98 5.57,-3.05 1.8,-1.14 3.51,-2.31 5.13,-3.51 1.68,-1.26 3.18,-2.58 4.49,-3.95l9.35 0 0 62.29 -13.39 0 0 -44.86c-1.8,1.2 -3.81,2.31 -6.03,3.33 -2.22,0.96 -4.37,1.8 -6.47,2.52l-4.04 -10.34zm96.93 32c0,2.7 -0.48,5.18 -1.44,7.46 -0.9,2.22 -2.28,4.16 -4.14,5.84 -1.86,1.68 -4.19,3 -7.01,3.96 -2.76,0.9 -5.96,1.35 -9.62,1.35 -4.19,0 -7.7,-0.57 -10.51,-1.71 -2.76,-1.2 -5.01,-2.66 -6.74,-4.4 -1.68,-1.74 -2.88,-3.63 -3.6,-5.67 -0.72,-2.1 -1.08,-4.01 -1.08,-5.75 0,-1.8 0.24,-3.45 0.72,-4.94 0.48,-1.5 1.14,-2.84 1.98,-4.04 0.84,-1.26 1.77,-2.4 2.79,-3.42 1.08,-1.02 2.22,-1.98 3.42,-2.87 -2.58,-2.1 -4.5,-4.17 -5.75,-6.2 -1.2,-2.04 -1.8,-4.64 -1.8,-7.82 0,-2.4 0.48,-4.71 1.44,-6.92 1.02,-2.22 2.43,-4.14 4.22,-5.75 1.8,-1.67 3.96,-2.99 6.47,-3.95 2.58,-1.02 5.42,-1.53 8.54,-1.53 3.65,0 6.77,0.54 9.35,1.62 2.64,1.02 4.8,2.33 6.47,3.95 1.68,1.62 2.87,3.45 3.59,5.48 0.78,1.98 1.17,3.96 1.17,5.93 0,2.87 -0.78,5.57 -2.34,8.09 -1.5,2.46 -3.38,4.4 -5.66,5.84 3.42,2.22 5.84,4.55 7.28,7.01 1.5,2.4 2.25,5.21 2.25,8.45zm-31.1 0.54c0,0.72 0.15,1.53 0.45,2.43 0.36,0.84 0.9,1.62 1.62,2.34 0.72,0.72 1.65,1.32 2.79,1.8 1.14,0.48 2.52,0.72 4.13,0.72 3.12,0 5.39,-0.75 6.83,-2.25 1.44,-1.5 2.16,-3.18 2.16,-5.03 0,-1.38 -0.33,-2.61 -0.99,-3.69 -0.6,-1.08 -1.44,-2.01 -2.52,-2.79 -1.08,-0.84 -2.37,-1.56 -3.87,-2.16 -1.44,-0.66 -3,-1.26 -4.67,-1.8 -1.68,1.26 -3.09,2.73 -4.23,4.41 -1.14,1.68 -1.71,3.68 -1.71,6.02zm16.63 -29.57c0,-0.66 -0.15,-1.35 -0.45,-2.07 -0.24,-0.78 -0.69,-1.5 -1.35,-2.16 -0.6,-0.66 -1.38,-1.2 -2.34,-1.62 -0.96,-0.48 -2.13,-0.72 -3.51,-0.72 -1.32,0 -2.46,0.21 -3.41,0.63 -0.96,0.42 -1.77,0.99 -2.43,1.71 -0.6,0.66 -1.05,1.38 -1.35,2.16 -0.3,0.78 -0.45,1.53 -0.45,2.25 0,1.92 0.69,3.71 2.07,5.39 1.44,1.68 3.87,3.11 7.28,4.31 1.92,-1.2 3.39,-2.58 4.41,-4.14 1.02,-1.56 1.53,-3.47 1.53,-5.75zm70.42 15.1c0,10.49 -2.01,18.55 -6.03,24.18 -3.96,5.57 -9.44,8.36 -16.45,8.36 -7.01,0 -12.53,-2.79 -16.54,-8.36 -3.96,-5.64 -5.93,-13.7 -5.93,-24.18 0,-5.21 0.51,-9.83 1.53,-13.84 1.08,-4.02 2.61,-7.4 4.59,-10.16 1.98,-2.76 4.34,-4.86 7.1,-6.29 2.76,-1.44 5.84,-2.16 9.26,-2.16 7.01,0 12.49,2.82 16.45,8.45 4.01,5.57 6.03,13.57 6.03,24zm-13.66 0c0,-3.11 -0.15,-5.93 -0.45,-8.45 -0.3,-2.58 -0.78,-4.8 -1.44,-6.65 -0.66,-1.86 -1.56,-3.3 -2.7,-4.31 -1.14,-1.02 -2.54,-1.53 -4.22,-1.53 -1.68,0 -3.09,0.51 -4.22,1.53 -1.08,1.02 -1.98,2.46 -2.7,4.31 -0.66,1.86 -1.14,4.08 -1.44,6.65 -0.3,2.52 -0.45,5.33 -0.45,8.45 0,3.12 0.15,5.96 0.45,8.54 0.3,2.58 0.78,4.8 1.44,6.65 0.72,1.86 1.62,3.29 2.7,4.31 1.14,1.02 2.54,1.53 4.22,1.53 1.68,0 3.09,-0.51 4.22,-1.53 1.14,-1.02 2.04,-2.46 2.7,-4.31 0.66,-1.86 1.14,-4.08 1.44,-6.65 0.3,-2.58 0.45,-5.42 0.45,-8.54zm69.25 0c0,10.49 -2.01,18.55 -6.02,24.18 -3.95,5.57 -9.44,8.36 -16.45,8.36 -7.01,0 -12.53,-2.79 -16.54,-8.36 -3.96,-5.64 -5.93,-13.7 -5.93,-24.18 0,-5.21 0.51,-9.83 1.53,-13.84 1.08,-4.02 2.61,-7.4 4.58,-10.16 1.98,-2.76 4.35,-4.86 7.1,-6.29 2.76,-1.44 5.84,-2.16 9.26,-2.16 7.01,0 12.49,2.82 16.45,8.45 4.02,5.57 6.02,13.57 6.02,24zm-13.66 0c0,-3.11 -0.15,-5.93 -0.45,-8.45 -0.3,-2.58 -0.78,-4.8 -1.44,-6.65 -0.66,-1.86 -1.56,-3.3 -2.7,-4.31 -1.14,-1.02 -2.54,-1.53 -4.22,-1.53 -1.68,0 -3.09,0.51 -4.22,1.53 -1.08,1.02 -1.98,2.46 -2.7,4.31 -0.66,1.86 -1.14,4.08 -1.44,6.65 -0.3,2.52 -0.45,5.33 -0.45,8.45 0,3.12 0.15,5.96 0.45,8.54 0.3,2.58 0.78,4.8 1.44,6.65 0.72,1.86 1.62,3.29 2.7,4.31 1.14,1.02 2.54,1.53 4.22,1.53 1.68,0 3.09,-0.51 4.22,-1.53 1.14,-1.02 2.04,-2.46 2.7,-4.31 0.66,-1.86 1.14,-4.08 1.44,-6.65 0.3,-2.58 0.45,-5.42 0.45,-8.54zm65.84 -14.65c0,2.28 -0.45,4.47 -1.35,6.56 -0.9,2.1 -2.07,4.13 -3.51,6.11 -1.44,1.92 -3.06,3.77 -4.85,5.57 -1.8,1.8 -3.57,3.51 -5.3,5.13 -0.9,0.84 -1.89,1.8 -2.97,2.87 -1.02,1.02 -2.01,2.07 -2.97,3.15 -0.96,1.08 -1.83,2.1 -2.61,3.06 -0.72,0.9 -1.17,1.65 -1.35,2.25l26.79 0 0 11.24 -41.53 0c-0.12,-0.66 -0.18,-1.5 -0.18,-2.52 0,-1.02 0,-1.74 0,-2.16 0,-2.87 0.45,-5.51 1.35,-7.91 0.96,-2.39 2.19,-4.61 3.69,-6.65 1.5,-2.1 3.17,-4.05 5.03,-5.85 1.92,-1.8 3.81,-3.59 5.66,-5.39 1.44,-1.38 2.78,-2.67 4.04,-3.86 1.26,-1.26 2.37,-2.46 3.32,-3.6 0.96,-1.2 1.71,-2.37 2.25,-3.51 0.54,-1.2 0.81,-2.4 0.81,-3.59 0,-2.64 -0.75,-4.49 -2.25,-5.57 -1.5,-1.08 -3.35,-1.62 -5.57,-1.62 -1.62,0 -3.15,0.27 -4.59,0.81 -1.38,0.48 -2.67,1.08 -3.86,1.8 -1.14,0.66 -2.13,1.35 -2.97,2.07 -0.84,0.66 -1.47,1.2 -1.88,1.62l-6.65 -9.35c2.64,-2.46 5.69,-4.47 9.17,-6.02 3.53,-1.62 7.31,-2.43 11.33,-2.43 3.65,0 6.8,0.42 9.44,1.26 2.64,0.84 4.79,2.04 6.47,3.6 1.74,1.5 2.99,3.35 3.77,5.57 0.84,2.16 1.26,4.61 1.26,7.37zm23.76 45.93c0.36,-4.37 1.11,-8.93 2.25,-13.66 1.14,-4.73 2.52,-9.38 4.13,-13.93 1.68,-4.55 3.54,-8.84 5.58,-12.85 2.04,-4.08 4.1,-7.58 6.2,-10.52l-27.06 0 0 -11.42 43.6 0 0 9.71c-1.92,2.1 -4.05,5 -6.39,8.72 -2.27,3.72 -4.46,7.94 -6.56,12.67 -2.04,4.67 -3.84,9.71 -5.39,15.1 -1.5,5.39 -2.43,10.79 -2.79,16.18l-13.57 0zm90.82 -31.28c0,10.49 -2.01,18.55 -6.02,24.18 -3.96,5.57 -9.44,8.36 -16.45,8.36 -7.01,0 -12.53,-2.79 -16.54,-8.36 -3.96,-5.64 -5.93,-13.7 -5.93,-24.18 0,-5.21 0.51,-9.83 1.53,-13.84 1.08,-4.02 2.61,-7.4 4.58,-10.16 1.98,-2.76 4.35,-4.86 7.1,-6.29 2.76,-1.44 5.84,-2.16 9.26,-2.16 7.01,0 12.49,2.82 16.45,8.45 4.02,5.57 6.02,13.57 6.02,24zm-13.66 0c0,-3.11 -0.15,-5.93 -0.45,-8.45 -0.3,-2.58 -0.78,-4.8 -1.44,-6.65 -0.66,-1.86 -1.56,-3.3 -2.7,-4.31 -1.14,-1.02 -2.55,-1.53 -4.22,-1.53 -1.68,0 -3.09,0.51 -4.23,1.53 -1.08,1.02 -1.98,2.46 -2.7,4.31 -0.66,1.86 -1.14,4.08 -1.44,6.65 -0.3,2.52 -0.45,5.33 -0.45,8.45 0,3.12 0.15,5.96 0.45,8.54 0.3,2.58 0.78,4.8 1.44,6.65 0.72,1.86 1.62,3.29 2.7,4.31 1.14,1.02 2.55,1.53 4.23,1.53 1.68,0 3.09,-0.51 4.22,-1.53 1.14,-1.02 2.04,-2.46 2.7,-4.31 0.66,-1.86 1.14,-4.08 1.44,-6.65 0.3,-2.58 0.45,-5.42 0.45,-8.54zm53.61 12.94c0,-1.74 -0.39,-3.26 -1.17,-4.59 -0.78,-1.38 -2.13,-2.52 -4.05,-3.42 -1.92,-0.9 -4.49,-1.59 -7.73,-2.07 -3.24,-0.48 -7.31,-0.72 -12.23,-0.72 0.66,-5.57 1.2,-11.24 1.62,-16.99 0.42,-5.75 0.75,-11.15 0.99,-16.18l33.71 0 0 11.24 -22.48 0c-0.12,2.16 -0.27,4.26 -0.45,6.29 -0.12,1.98 -0.27,3.71 -0.45,5.21 8.75,0.6 15.19,2.67 19.33,6.2 4.2,3.48 6.29,8.33 6.29,14.56 0,2.87 -0.51,5.54 -1.53,8 -1.02,2.46 -2.55,4.58 -4.59,6.38 -2.04,1.8 -4.61,3.21 -7.73,4.23 -3.06,1.02 -6.65,1.53 -10.79,1.53 -1.62,0 -3.32,-0.12 -5.12,-0.36 -1.74,-0.18 -3.45,-0.45 -5.13,-0.81 -1.62,-0.3 -3.09,-0.63 -4.4,-0.99 -1.32,-0.36 -2.34,-0.72 -3.06,-1.08l2.43 -11.05c1.5,0.66 3.48,1.32 5.93,1.98 2.46,0.6 5.39,0.9 8.81,0.9 4.14,0 7.13,-0.81 8.99,-2.43 1.86,-1.68 2.79,-3.63 2.79,-5.84zm55.59 0c0,-1.74 -0.39,-3.26 -1.17,-4.59 -0.78,-1.38 -2.13,-2.52 -4.05,-3.42 -1.92,-0.9 -4.49,-1.59 -7.73,-2.07 -3.24,-0.48 -7.31,-0.72 -12.22,-0.72 0.66,-5.57 1.2,-11.24 1.62,-16.99 0.42,-5.75 0.75,-11.15 0.99,-16.18l33.71 0 0 11.24 -22.47 0c-0.12,2.16 -0.27,4.26 -0.45,6.29 -0.12,1.98 -0.27,3.71 -0.45,5.21 8.75,0.6 15.19,2.67 19.33,6.2 4.19,3.48 6.29,8.33 6.29,14.56 0,2.87 -0.51,5.54 -1.53,8 -1.02,2.46 -2.55,4.58 -4.59,6.38 -2.04,1.8 -4.61,3.21 -7.73,4.23 -3.06,1.02 -6.65,1.53 -10.78,1.53 -1.62,0 -3.33,-0.12 -5.13,-0.36 -1.74,-0.18 -3.44,-0.45 -5.12,-0.81 -1.62,-0.3 -3.09,-0.63 -4.4,-0.99 -1.32,-0.36 -2.34,-0.72 -3.06,-1.08l2.43 -11.05c1.5,0.66 3.48,1.32 5.93,1.98 2.46,0.6 5.39,0.9 8.81,0.9 4.14,0 7.13,-0.81 8.99,-2.43 1.86,-1.68 2.79,-3.63 2.79,-5.84zm71.22 -12.94c0,10.49 -2.01,18.55 -6.02,24.18 -3.96,5.57 -9.44,8.36 -16.45,8.36 -7.01,0 -12.52,-2.79 -16.54,-8.36 -3.96,-5.64 -5.93,-13.7 -5.93,-24.18 0,-5.21 0.51,-9.83 1.53,-13.84 1.08,-4.02 2.6,-7.4 4.58,-10.16 1.98,-2.76 4.35,-4.86 7.1,-6.29 2.76,-1.44 5.84,-2.16 9.26,-2.16 7.01,0 12.49,2.82 16.45,8.45 4.01,5.57 6.02,13.57 6.02,24zm-13.66 0c0,-3.11 -0.15,-5.93 -0.45,-8.45 -0.3,-2.58 -0.78,-4.8 -1.44,-6.65 -0.66,-1.86 -1.56,-3.3 -2.7,-4.31 -1.14,-1.02 -2.55,-1.53 -4.23,-1.53 -1.68,0 -3.09,0.51 -4.22,1.53 -1.08,1.02 -1.98,2.46 -2.7,4.31 -0.66,1.86 -1.14,4.08 -1.44,6.65 -0.3,2.52 -0.45,5.33 -0.45,8.45 0,3.12 0.15,5.96 0.45,8.54 0.3,2.58 0.78,4.8 1.44,6.65 0.72,1.86 1.62,3.29 2.7,4.31 1.14,1.02 2.55,1.53 4.22,1.53 1.68,0 3.09,-0.51 4.23,-1.53 1.14,-1.02 2.04,-2.46 2.7,-4.31 0.66,-1.86 1.14,-4.08 1.44,-6.65 0.3,-2.58 0.45,-5.42 0.45,-8.54zm27.54 -18.07c1.74,-0.72 3.54,-1.53 5.39,-2.43 1.92,-0.96 3.77,-1.98 5.57,-3.05 1.8,-1.14 3.51,-2.31 5.13,-3.51 1.68,-1.26 3.18,-2.58 4.49,-3.95l9.35 0 0 62.29 -13.39 0 0 -44.86c-1.8,1.2 -3.81,2.31 -6.02,3.33 -2.22,0.96 -4.38,1.8 -6.47,2.52l-4.04 -10.34z"/>
  <g>
  </g>
  <g style="clip-path:url(#id0)">
   <g>
    <path class="fil1" d="M165.47 48.97c32.62,0 59.32,27.29 59.32,60.65l0 28.19 -118.64 0 0 -28.19c0,-33.35 26.69,-60.65 59.32,-60.65l-0.01 0zm-24.57 47.73c0,1.12 -0.21,2.18 -0.65,3.21 -0.43,1.02 -0.99,2.01 -1.68,2.97 -0.69,0.95 -1.46,1.86 -2.32,2.74 -0.86,0.88 -1.7,1.72 -2.53,2.5 -0.43,0.41 -0.89,0.88 -1.4,1.39 -0.5,0.51 -0.98,1.03 -1.44,1.56 -0.45,0.53 -0.87,1.01 -1.22,1.47 -0.36,0.45 -0.58,0.83 -0.67,1.13l12.8 0 0 5.49 -19.84 0c-0.06,-0.32 -0.09,-0.73 -0.09,-1.23 0,-0.5 0,-0.85 0,-1.06 0,-1.41 0.22,-2.69 0.67,-3.87 0.44,-1.17 1.02,-2.26 1.74,-3.28 0.71,-1.01 1.52,-1.95 2.43,-2.83 0.9,-0.88 1.8,-1.75 2.68,-2.64 0.69,-0.67 1.33,-1.31 1.93,-1.91 0.6,-0.6 1.13,-1.18 1.59,-1.76 0.46,-0.57 0.81,-1.14 1.08,-1.72 0.25,-0.57 0.39,-1.15 0.39,-1.74 0,-1.28 -0.36,-2.19 -1.08,-2.72 -0.71,-0.52 -1.6,-0.8 -2.66,-0.8 -0.77,0 -1.5,0.12 -2.17,0.37 -0.68,0.25 -1.29,0.55 -1.85,0.88 -0.55,0.34 -1.03,0.67 -1.43,1.01 -0.4,0.34 -0.7,0.6 -0.9,0.81l-3.18 -4.57c1.26,-1.21 2.72,-2.19 4.41,-2.97 1.68,-0.77 3.47,-1.16 5.39,-1.16 1.75,0 3.25,0.21 4.51,0.62 1.26,0.41 2.3,0.99 3.11,1.74 0.81,0.75 1.41,1.65 1.8,2.72 0.39,1.07 0.58,2.27 0.58,3.63l0 0.02zm16.79 0c-1.11,1.49 -2.3,3.12 -3.57,4.88 -1.26,1.75 -2.32,3.56 -3.18,5.4l6.74 0 0 -10.28 0.01 0zm6.27 -8l0 18.28 3.18 0 0 5.35 -3.18 0 0 6.81 -6.27 0 0 -6.81 -12.85 0 0 -4.79c0.63,-1.28 1.41,-2.74 2.36,-4.36 0.94,-1.63 2,-3.3 3.16,-5 1.16,-1.72 2.38,-3.39 3.67,-5.03 1.29,-1.64 2.58,-3.12 3.87,-4.43l6.06 0 0 -0.01zm9.92 38.56l-6.57 0 14.44 -42.52 6.48 0 -14.35 42.52zm19.37 -8.13c0.17,-2.14 0.54,-4.36 1.08,-6.68 0.55,-2.31 1.21,-4.58 2,-6.81 0.79,-2.23 1.67,-4.32 2.65,-6.3 0.98,-1.98 1.96,-3.68 2.97,-5.12l-12.93 0 0 -5.58 20.83 0 0 4.74c-0.91,1.02 -1.92,2.45 -3.03,4.26 -1.1,1.82 -2.14,3.88 -3.13,6.18 -0.99,2.3 -1.85,4.76 -2.58,7.4 -0.73,2.64 -1.18,5.26 -1.36,7.9l-6.48 0 -0.01 0z"/>
    <path class="fil1" d="M78.39 101.2c-13.71,0 -25.59,6.05 -31.75,18.42 -1.7,3.42 -3.66,8.49 -3.66,13.38l0 25.44c0,4.87 2.48,12.08 4.39,15.08 5.27,8.26 12.2,14.4 22.27,16.38 4.92,0.97 11.6,1.64 17.18,0.66 6.78,-1.18 6.88,-4.98 6.87,-12.54 -0.01,-17.35 -0.7,-65.2 0.55,-78.21 0.83,-8.74 5.24,-22.12 9.79,-29.13 0.78,-1.19 1.08,-1.84 1.85,-3 3.5,-5.38 6.68,-8.84 11.16,-13.05 45.93,-43.3 120.46,-9.83 120.22,54.91 -0.03,10.09 -0.49,68.5 0,74.37 0.68,8.18 10.73,6.85 16.27,6.85 13.22,0 25.58,-7.72 30.95,-18.75 1.52,-3.13 3.5,-9.13 3.5,-13.54l0 -24.46c0,-8.34 -4.66,-18.47 -10.41,-23.61 -6.34,-5.66 -13.21,-9.18 -25,-9.18 -1.46,-17.89 -10.31,-40.33 -22.13,-52.23 -2.92,-2.95 -0.27,-0.9 -5.26,-5.39 -4.87,-4.38 -4.5,-4.75 -11.37,-9.41 -4.05,-2.75 -8.71,-5.54 -13.6,-7.62 -9.65,-4.11 -14.5,-5.15 -24.95,-6.79l-19.16 -0.07c-3.32,0.49 -5.85,0.91 -9.01,1.56 -11.32,2.3 -27.43,9.67 -35.8,17.22 -1.11,1 -1.82,1.49 -2.88,2.44l-5.23 4.92c-6.29,7.75 -10.27,11.36 -15.39,21.94 -4.63,9.54 -8.35,20.48 -9.41,33.43l0.02 0zm54.07 143.35l0 -9.29c-15.19,0 -22.71,-1.35 -34.04,-10.69 -7.34,-6.04 -12.1,-15.43 -14.28,-25.03 -1.53,0 -3.29,0.08 -4.78,0 -1.85,-0.1 -2.34,-0.49 -4.3,-0.49 0.52,6.39 4.1,14.61 6.72,19.06 10.72,18.21 27.02,26.44 50.7,26.44l-0.01 0zm8.13 -5.38c0,5.04 1.65,9.18 5.14,12.36 6.14,5.6 16.41,4.28 25.97,4.28 5.98,0 9.91,-1.17 13.27,-4.05 11.02,-9.47 3.67,-27.75 -9.44,-27.75l-20.1 0c-7.73,0 -14.84,7.3 -14.84,15.17l0 -0.01z"/>
   </g>
  </g>
  <polygon class="fil2" points="42.98,255.93 287.97,255.93 287.97,19.69 42.98,19.69 "/>
  <path id="Helpline_x0020_Number.svg" class="fil1" d="M369.5 162.87l6.54 0 0 46.72 -6.54 0 0 -21.57 -22.85 0 0 21.57 -6.54 0 0 -46.72 6.54 0 0 19.48 22.85 0 0 -19.48zm19.15 29.26c0,-3.1 0.45,-5.8 1.35,-8.09 0.9,-2.34 2.09,-4.27 3.57,-5.8 1.48,-1.53 3.19,-2.67 5.12,-3.44 1.93,-0.76 3.91,-1.15 5.93,-1.15 4.72,0 8.34,1.48 10.85,4.45 2.52,2.92 3.78,7.39 3.78,13.42 0,0.27 0,0.63 0,1.08 0,0.41 -0.02,0.79 -0.07,1.15l-24 0c0.27,3.64 1.32,6.4 3.17,8.29 1.84,1.89 4.72,2.83 8.63,2.83 2.2,0 4.05,-0.18 5.53,-0.54 1.53,-0.4 2.68,-0.78 3.44,-1.15l0.87 5.26c-0.76,0.41 -2.11,0.83 -4.04,1.28 -1.89,0.45 -4.04,0.68 -6.47,0.68 -3.06,0 -5.71,-0.45 -7.96,-1.35 -2.2,-0.94 -4.02,-2.22 -5.46,-3.84 -1.44,-1.62 -2.52,-3.53 -3.24,-5.73 -0.67,-2.25 -1.01,-4.7 -1.01,-7.35zm24.07 -3.44c0.04,-2.83 -0.67,-5.15 -2.16,-6.95 -1.44,-1.84 -3.44,-2.76 -6,-2.76 -1.44,0 -2.72,0.29 -3.84,0.88 -1.08,0.54 -2,1.26 -2.76,2.16 -0.76,0.9 -1.37,1.93 -1.82,3.1 -0.4,1.17 -0.67,2.36 -0.81,3.57l17.39 0zm29.43 21.57c-3.87,-0.09 -6.61,-0.92 -8.22,-2.49 -1.62,-1.58 -2.43,-4.02 -2.43,-7.35l0 -42.07 6.27 -1.08 0 42.13c0,1.03 0.09,1.89 0.27,2.56 0.18,0.67 0.47,1.21 0.87,1.62 0.41,0.41 0.94,0.72 1.62,0.94 0.67,0.18 1.5,0.34 2.5,0.47l-0.88 5.26zm35.63 -18.13c0,-4.09 -1.01,-7.24 -3.03,-9.44 -2.02,-2.2 -4.72,-3.31 -8.09,-3.31 -1.88,0 -3.37,0.07 -4.45,0.2 -1.03,0.14 -1.87,0.29 -2.5,0.47l0 22.11c0.76,0.63 1.86,1.23 3.3,1.82 1.44,0.58 3.01,0.87 4.72,0.87 1.8,0 3.33,-0.31 4.59,-0.94 1.3,-0.68 2.36,-1.58 3.17,-2.7 0.81,-1.17 1.39,-2.52 1.75,-4.05 0.36,-1.57 0.54,-3.25 0.54,-5.05zm6.54 0c0,2.65 -0.36,5.1 -1.08,7.35 -0.68,2.25 -1.68,4.18 -3.03,5.8 -1.35,1.62 -3.01,2.88 -4.99,3.77 -1.93,0.9 -4.16,1.35 -6.68,1.35 -2.02,0 -3.82,-0.27 -5.39,-0.81 -1.53,-0.54 -2.67,-1.06 -3.44,-1.55l0 14.02 -6.27 0 0 -46.45c1.48,-0.36 3.33,-0.74 5.53,-1.14 2.25,-0.45 4.83,-0.67 7.75,-0.67 2.7,0 5.13,0.43 7.28,1.28 2.16,0.85 4,2.07 5.53,3.64 1.53,1.57 2.7,3.51 3.5,5.8 0.85,2.25 1.28,4.79 1.28,7.62zm22.71 18.13c-3.87,-0.09 -6.6,-0.92 -8.22,-2.49 -1.62,-1.58 -2.43,-4.02 -2.43,-7.35l0 -42.07 6.27 -1.08 0 42.13c0,1.03 0.09,1.89 0.27,2.56 0.18,0.67 0.47,1.21 0.87,1.62 0.41,0.41 0.95,0.72 1.62,0.94 0.68,0.18 1.5,0.34 2.5,0.47l-0.88 5.26zm17.56 -0.67l-6.27 0 0 -35.06 6.27 0 0 35.06zm-3.17 -41.39c-1.13,0 -2.09,-0.36 -2.9,-1.08 -0.76,-0.76 -1.15,-1.78 -1.15,-3.03 0,-1.26 0.38,-2.25 1.15,-2.97 0.81,-0.76 1.78,-1.15 2.9,-1.15 1.12,0 2.07,0.38 2.83,1.15 0.81,0.72 1.21,1.71 1.21,2.97 0,1.26 -0.41,2.27 -1.21,3.03 -0.76,0.72 -1.71,1.08 -2.83,1.08zm17.32 7.35c1.44,-0.36 3.35,-0.74 5.73,-1.15 2.38,-0.4 5.12,-0.61 8.22,-0.61 2.79,0 5.1,0.4 6.95,1.21 1.84,0.76 3.3,1.87 4.38,3.3 1.12,1.39 1.91,3.08 2.36,5.06 0.45,1.98 0.67,4.16 0.67,6.54l0 19.68 -6.27 0 0 -18.34c0,-2.16 -0.16,-4 -0.47,-5.53 -0.27,-1.53 -0.74,-2.76 -1.41,-3.71 -0.68,-0.94 -1.58,-1.62 -2.7,-2.02 -1.12,-0.45 -2.52,-0.68 -4.18,-0.68 -0.67,0 -1.37,0.02 -2.09,0.07 -0.72,0.05 -1.42,0.11 -2.09,0.2 -0.63,0.04 -1.21,0.11 -1.75,0.2 -0.49,0.09 -0.85,0.16 -1.08,0.2l0 29.6 -6.27 0 0 -34.05zm40.13 16.59c0,-3.1 0.45,-5.8 1.35,-8.09 0.9,-2.34 2.09,-4.27 3.58,-5.8 1.48,-1.53 3.19,-2.67 5.12,-3.44 1.93,-0.76 3.91,-1.15 5.93,-1.15 4.72,0 8.34,1.48 10.85,4.45 2.52,2.92 3.77,7.39 3.77,13.42 0,0.27 0,0.63 0,1.08 0,0.41 -0.02,0.79 -0.07,1.15l-24 0c0.27,3.64 1.32,6.4 3.17,8.29 1.84,1.89 4.72,2.83 8.63,2.83 2.2,0 4.05,-0.18 5.53,-0.54 1.53,-0.4 2.67,-0.78 3.44,-1.15l0.88 5.26c-0.77,0.41 -2.11,0.83 -4.05,1.28 -1.89,0.45 -4.04,0.68 -6.47,0.68 -3.05,0 -5.71,-0.45 -7.95,-1.35 -2.2,-0.94 -4.02,-2.22 -5.46,-3.84 -1.44,-1.62 -2.52,-3.53 -3.24,-5.73 -0.67,-2.25 -1.01,-4.7 -1.01,-7.35zm24.07 -3.44c0.04,-2.83 -0.67,-5.15 -2.16,-6.95 -1.44,-1.84 -3.44,-2.76 -6,-2.76 -1.44,0 -2.72,0.29 -3.84,0.88 -1.08,0.54 -2,1.26 -2.77,2.16 -0.76,0.9 -1.37,1.93 -1.82,3.1 -0.4,1.17 -0.67,2.36 -0.81,3.57l17.39 0zm70.32 20.9c-0.99,-1.66 -2.14,-3.53 -3.44,-5.59 -1.26,-2.07 -2.63,-4.21 -4.11,-6.41 -1.48,-2.25 -3.04,-4.51 -4.65,-6.81 -1.58,-2.29 -3.15,-4.49 -4.72,-6.6 -1.57,-2.16 -3.1,-4.18 -4.58,-6.07 -1.48,-1.89 -2.85,-3.55 -4.11,-4.99l0 36.47 -6.4 0 0 -46.72 5.19 0c2.12,2.25 4.36,4.88 6.75,7.89 2.43,2.97 4.81,6.04 7.15,9.24 2.38,3.15 4.61,6.25 6.67,9.3 2.11,3.06 3.89,5.78 5.33,8.16l0 -34.59 6.41 0 0 46.72 -5.46 0zm47.9 -1.01c-1.44,0.36 -3.35,0.74 -5.73,1.15 -2.33,0.4 -5.06,0.61 -8.16,0.61 -2.7,0 -4.96,-0.38 -6.81,-1.15 -1.84,-0.81 -3.33,-1.93 -4.45,-3.37 -1.12,-1.44 -1.93,-3.12 -2.43,-5.05 -0.5,-1.98 -0.74,-4.16 -0.74,-6.54l0 -19.69 6.27 0 0 18.34c0,4.27 0.67,7.33 2.02,9.17 1.35,1.84 3.62,2.76 6.81,2.76 0.68,0 1.37,-0.02 2.09,-0.07 0.72,-0.04 1.39,-0.09 2.02,-0.13 0.63,-0.09 1.19,-0.16 1.68,-0.21 0.54,-0.09 0.92,-0.18 1.15,-0.27l0 -29.6 6.27 0 0 34.05zm14.17 -33.03c1.44,-0.36 3.33,-0.74 5.67,-1.15 2.38,-0.4 5.12,-0.61 8.22,-0.61 2.25,0 4.13,0.31 5.66,0.94 1.53,0.58 2.81,1.46 3.84,2.63 0.31,-0.23 0.81,-0.54 1.48,-0.95 0.67,-0.41 1.51,-0.79 2.5,-1.15 0.99,-0.4 2.09,-0.74 3.3,-1.01 1.21,-0.31 2.52,-0.47 3.91,-0.47 2.7,0 4.9,0.4 6.61,1.21 1.71,0.76 3.03,1.87 3.98,3.3 0.99,1.44 1.64,3.15 1.95,5.13 0.36,1.98 0.54,4.13 0.54,6.47l0 19.68 -6.27 0 0 -18.34c0,-2.07 -0.11,-3.84 -0.34,-5.32 -0.18,-1.48 -0.56,-2.72 -1.15,-3.71 -0.54,-0.99 -1.3,-1.71 -2.29,-2.16 -0.95,-0.5 -2.18,-0.74 -3.71,-0.74 -2.11,0 -3.87,0.29 -5.26,0.88 -1.35,0.54 -2.27,1.03 -2.77,1.48 0.36,1.16 0.63,2.45 0.81,3.84 0.18,1.39 0.27,2.85 0.27,4.38l0 19.68 -6.27 0 0 -18.34c0,-2.07 -0.11,-3.84 -0.34,-5.32 -0.23,-1.48 -0.63,-2.72 -1.21,-3.71 -0.54,-0.99 -1.3,-1.71 -2.3,-2.16 -0.94,-0.5 -2.16,-0.74 -3.64,-0.74 -0.63,0 -1.3,0.02 -2.02,0.07 -0.72,0.05 -1.42,0.11 -2.09,0.2 -0.63,0.04 -1.21,0.11 -1.75,0.2 -0.54,0.09 -0.9,0.16 -1.08,0.2l0 29.6 -6.27 0 0 -34.05zm67.71 0.54c0.76,-0.49 1.91,-1.01 3.44,-1.55 1.58,-0.54 3.37,-0.81 5.39,-0.81 2.52,0 4.74,0.45 6.68,1.35 1.98,0.9 3.64,2.15 4.99,3.77 1.35,1.62 2.36,3.55 3.04,5.8 0.72,2.25 1.08,4.72 1.08,7.42 0,2.83 -0.43,5.39 -1.28,7.68 -0.81,2.25 -1.98,4.16 -3.51,5.73 -1.53,1.58 -3.37,2.79 -5.53,3.64 -2.16,0.86 -4.58,1.28 -7.28,1.28 -2.92,0 -5.5,-0.21 -7.75,-0.61 -2.25,-0.4 -4.09,-0.81 -5.53,-1.21l0 -50.23 6.27 -1.08 0 18.81zm0 28.05c0.63,0.18 1.5,0.36 2.63,0.54 1.16,0.13 2.6,0.2 4.31,0.2 3.37,0 6.07,-1.1 8.09,-3.3 2.02,-2.24 3.04,-5.41 3.04,-9.5 0,-1.8 -0.18,-3.49 -0.54,-5.06 -0.36,-1.58 -0.94,-2.92 -1.75,-4.05 -0.81,-1.17 -1.87,-2.07 -3.17,-2.7 -1.26,-0.68 -2.79,-1.01 -4.59,-1.01 -1.71,0 -3.28,0.29 -4.72,0.88 -1.44,0.58 -2.54,1.19 -3.3,1.82l0 22.18zm34.85 -12c0,-3.1 0.45,-5.8 1.35,-8.09 0.9,-2.34 2.09,-4.27 3.57,-5.8 1.48,-1.53 3.19,-2.67 5.12,-3.44 1.93,-0.76 3.91,-1.15 5.93,-1.15 4.72,0 8.34,1.48 10.85,4.45 2.52,2.92 3.78,7.39 3.78,13.42 0,0.27 0,0.63 0,1.08 0,0.41 -0.02,0.79 -0.07,1.15l-24 0c0.27,3.64 1.32,6.4 3.17,8.29 1.84,1.89 4.72,2.83 8.63,2.83 2.2,0 4.05,-0.18 5.53,-0.54 1.53,-0.4 2.68,-0.78 3.44,-1.15l0.87 5.26c-0.76,0.41 -2.11,0.83 -4.04,1.28 -1.89,0.45 -4.04,0.68 -6.47,0.68 -3.06,0 -5.71,-0.45 -7.96,-1.35 -2.2,-0.94 -4.02,-2.22 -5.46,-3.84 -1.44,-1.62 -2.52,-3.53 -3.24,-5.73 -0.67,-2.25 -1.01,-4.7 -1.01,-7.35zm24.07 -3.44c0.04,-2.83 -0.67,-5.15 -2.16,-6.95 -1.44,-1.84 -3.44,-2.76 -6,-2.76 -1.44,0 -2.72,0.29 -3.84,0.88 -1.08,0.54 -2,1.26 -2.76,2.16 -0.76,0.9 -1.37,1.93 -1.82,3.1 -0.4,1.17 -0.67,2.36 -0.81,3.57l17.39 0zm31.86 -14.9c0.54,0 1.15,0.04 1.82,0.13 0.72,0.05 1.42,0.14 2.09,0.27 0.67,0.09 1.28,0.2 1.82,0.34 0.59,0.09 1.01,0.18 1.28,0.27l-1.08 5.46c-0.5,-0.18 -1.33,-0.38 -2.5,-0.61 -1.12,-0.27 -2.58,-0.41 -4.38,-0.41 -1.17,0 -2.34,0.14 -3.51,0.41 -1.12,0.23 -1.86,0.38 -2.23,0.47l0 29.46 -6.27 0 0 -33.58c1.48,-0.54 3.33,-1.03 5.53,-1.48 2.2,-0.49 4.67,-0.74 7.42,-0.74z"/>
 </g>
</svg>
