<svg width="29" height="29" viewBox="0 0 29 29" fill="none" xmlns="http://www.w3.org/2000/svg">
<path d="M28.62 1.78875C28.62 1.31434 28.4315 0.859369 28.0961 0.523913C27.7606 0.188457 27.3057 0 26.8312 0H17.8875C17.4131 0 16.9581 0.188457 16.6227 0.523913C16.2872 0.859369 16.0988 1.31434 16.0988 1.78875C16.0988 2.26316 16.2872 2.71813 16.6227 3.05359C16.9581 3.38904 17.4131 3.5775 17.8875 3.5775H22.4846L16.6175 9.46249C16.4498 9.62877 16.3168 9.82661 16.2259 10.0446C16.1351 10.2626 16.0884 10.4964 16.0884 10.7325C16.0884 10.9686 16.1351 11.2024 16.2259 11.4204C16.3168 11.6384 16.4498 11.8362 16.6175 12.0025C16.7838 12.1702 16.9816 12.3032 17.1996 12.3941C17.4176 12.4849 17.6514 12.5316 17.8875 12.5316C18.1236 12.5316 18.3574 12.4849 18.5754 12.3941C18.7934 12.3032 18.9912 12.1702 19.1575 12.0025L25.0425 6.11752V10.7325C25.0425 11.2069 25.231 11.6619 25.5664 11.9973C25.9019 12.3328 26.3568 12.5212 26.8312 12.5212C27.3057 12.5212 27.7606 12.3328 28.0961 11.9973C28.4315 11.6619 28.62 11.2069 28.62 10.7325V1.78875Z" fill="#3C3C44"/>
<path d="M12.0025 16.6175C11.8362 16.4498 11.6384 16.3168 11.4204 16.2259C11.2024 16.1351 10.9686 16.0884 10.7325 16.0884C10.4964 16.0884 10.2626 16.1351 10.0446 16.2259C9.82661 16.3168 9.62877 16.4498 9.46249 16.6175L3.5775 22.4846V17.8875C3.5775 17.4131 3.38904 16.9581 3.05359 16.6227C2.71813 16.2872 2.26316 16.0988 1.78875 16.0988C1.31434 16.0988 0.859369 16.2872 0.523913 16.6227C0.188457 16.9581 0 17.4131 0 17.8875V26.8312C0 27.3057 0.188457 27.7606 0.523913 28.0961C0.859369 28.4315 1.31434 28.62 1.78875 28.62H10.7325C11.2069 28.62 11.6619 28.4315 11.9973 28.0961C12.3328 27.7606 12.5212 27.3057 12.5212 26.8312C12.5212 26.3568 12.3328 25.9019 11.9973 25.5664C11.6619 25.231 11.2069 25.0425 10.7325 25.0425H6.11752L12.0025 19.1575C12.1702 18.9912 12.3032 18.7934 12.3941 18.5754C12.4849 18.3574 12.5316 18.1236 12.5316 17.8875C12.5316 17.6514 12.4849 17.4176 12.3941 17.1996C12.3032 16.9816 12.1702 16.7838 12.0025 16.6175Z" fill="#3C3C44"/>
</svg>
