<svg width="40" height="37" viewBox="0 0 40 37" fill="none" xmlns="http://www.w3.org/2000/svg">
<path fill-rule="evenodd" clip-rule="evenodd" d="M31.0928 35.2493H21.0146C19.2504 35.2493 19.2523 32.6711 20.9365 32.6711H31.3271C31.6144 32.6711 32.0116 32.9107 32.1586 33.0895C32.348 33.3196 32.505 33.7021 32.4677 34.0518C32.3951 34.7299 31.8083 35.249 31.0928 35.249V35.2493ZM15.4677 20.4055L11.8006 20.4103C10.9975 20.5182 10.9875 21.4889 11.7328 21.6401L15.3894 21.6554C15.3291 22.3793 14.398 22.8097 13.5953 22.83C13.154 22.8412 12.5395 22.7291 12.1585 22.8777C11.8887 22.9829 11.5613 23.4387 11.5613 23.7647C11.5613 24.3195 14.5152 27.8107 15.0521 28.4768C15.2318 28.6997 15.429 29.0408 15.7444 29.1125C16.0856 29.19 16.4831 28.8617 16.4831 28.5303C16.4831 28.1884 14.3157 25.5932 13.9492 25.1265L13.0455 23.9991C14.386 23.9991 14.6329 24.0384 15.4845 23.4694C16.0794 23.0719 16.5355 22.4362 16.7174 21.6554C17.1182 21.6554 18.3581 21.8267 18.3581 21.0304C18.3581 20.2189 17.066 20.4053 16.7174 20.4053C16.6842 20.0072 16.408 19.5347 16.2485 19.2335C16.7174 19.2335 17.748 19.3316 18.0496 19.1593C18.4928 18.9057 18.3673 18.0617 17.8892 18.0617H11.6391C11.2185 18.0617 11.0405 18.757 11.3906 19.0904C11.8461 19.5244 13.5997 18.9403 14.6382 19.4374C15.0298 19.6248 15.3659 19.9707 15.4672 20.4053L15.4677 20.4055ZM31.249 31.4212H20.7803C19.478 31.4212 19.0255 28.843 21.1708 28.843H30.9366C31.7154 28.843 31.9084 29.0896 32.3937 30.0438C32.5463 30.344 32.3745 30.7138 32.1915 30.9573C31.9993 31.2131 31.6922 31.4209 31.2487 31.4209L31.249 31.4212ZM8.90525 9.93687C8.90525 9.2744 9.34457 8.92127 9.99895 8.92127H19.5301C20.953 8.92127 21.0266 10.7963 19.6082 10.7963H9.92085C9.37833 10.7963 8.90525 10.4652 8.90525 9.93687ZM9.45224 7.74946C7.87431 8.1171 7.16721 9.88973 8.13233 11.179C8.34906 11.4685 8.76913 11.8529 9.21794 11.8902C8.66621 12.7142 7.94879 13.5187 7.34211 14.3111C7.23778 14.4472 7.15104 14.5683 7.03946 14.7117C6.63668 15.2285 6.67155 15.8745 7.49942 15.8745C7.76915 15.8745 8.19146 15.2118 8.34766 15.004L10.3016 12.5047C10.3646 12.4238 10.4346 12.3259 10.5086 12.2428C10.6285 12.1081 10.5504 12.0464 10.7811 12.0464H18.75C18.984 12.0464 19.0216 12.2434 19.1597 12.418C19.2908 12.5837 19.3723 12.6866 19.5067 12.8523L21.5513 15.4952C22.4642 16.7119 23.3287 17.899 24.1875 19.1872C25.6143 21.3274 27.7188 24.4933 28.2122 26.9594C28.2555 27.175 28.2722 27.4899 28.3595 27.6715C26.3021 27.6715 24.245 27.6715 22.1875 27.6715C20.6378 27.6715 19.5469 27.6143 18.8013 28.8946C18.4083 29.5694 18.3402 30.5376 18.6958 31.2413C18.8983 31.6424 19.0953 31.7453 19.2969 32.0463C18.8392 32.73 18.4376 32.9754 18.4376 33.9994C18.4376 34.458 18.6671 34.945 18.8281 35.2493C16.7706 35.2493 14.7135 35.2493 12.6561 35.2493C9.55126 35.2493 6.97391 35.7031 4.52989 34.0786C3.25823 33.2335 2.26969 32.135 1.69508 30.6634C1.52493 30.2277 1.43902 29.9041 1.34669 29.4492C0.885337 27.1742 1.6644 25.6066 2.60385 23.7126L3.29533 22.451C3.80076 21.6197 4.25877 20.8438 4.78065 20.0298C5.09334 19.542 6.32818 17.9696 6.32818 17.5149C6.32818 16.8636 5.52987 16.7242 5.10756 17.388C3.54163 19.8491 2.12743 21.6192 0.914904 24.4454C0.341415 25.782 0 26.8274 0 28.3741C0 30.062 0.576278 31.4968 1.42033 32.7353C2.18489 33.8574 3.3076 34.8786 4.53073 35.4842C5.28748 35.8588 6.3968 36.4211 7.49998 36.4211H31.3282C33.3789 36.4211 34.4328 33.6719 33.0504 32.277C32.9195 32.1448 33.0356 32.1838 32.8124 32.1241C32.8922 32.0053 33.175 31.655 33.2813 31.5771C33.6043 32.1877 35.2774 35.2602 35.7203 35.7006C37.1359 37.1081 40 36.3137 40 34.0772C40 33.0867 39.612 32.588 39.1646 31.7875L37.1049 28.2221C36.9454 27.9549 36.8015 27.5585 36.4419 27.479C36.0999 27.4032 35.703 27.7292 35.703 28.0615C35.703 28.3362 35.9089 28.5733 36.0422 28.816C36.5214 29.6885 38.8279 33.3082 38.8279 33.921C38.8279 35.1631 37.1627 35.6761 36.4807 34.7059C35.7499 33.6664 32.7935 28.2642 31.8111 26.6414L31.2256 25.5854C30.6766 24.1896 32.5455 23.1896 33.4082 24.2632C33.7672 24.7098 34.1711 25.9689 34.645 26.2361C35.05 26.4643 35.5468 26.2032 35.5468 25.7184C35.5468 25.314 34.7474 24.1011 34.4969 23.7215C33.0791 21.572 29.9218 22.7876 29.9218 24.859C29.9218 25.5862 30.0496 26.001 30.3865 26.582C30.5982 26.9471 30.7879 27.3315 31.0155 27.6715H29.531C29.531 25.3011 26.6739 20.7274 25.5936 19.1091L23.0154 15.4372C22.5669 14.7856 22.1426 14.2807 21.674 13.6537L20.3125 11.8902C20.8049 11.8492 21.4531 11.2841 21.5625 10.8746C23.0617 10.9993 23.9889 12.3742 24.3855 13.6765C24.5864 14.3359 25.3942 17.5152 26.2499 17.5152C26.5911 17.5152 26.8929 17.4957 26.9927 17.0787C27.0597 16.8 26.9202 16.6321 26.7768 16.4419C26.4561 16.0168 26.3292 15.7607 26.1152 15.2282C25.7523 14.3256 25.6368 13.3128 25.2095 12.4621C23.6952 9.4479 22.0009 10.0825 21.797 9.46826L21.5627 8.76506C22.8082 7.93105 23.9518 8.40775 25.0221 9.21192C25.5719 9.62502 26.4725 10.1715 27.2658 10.1715C27.4703 10.1715 27.7347 9.82585 27.7347 9.70256C27.7347 8.87162 27.224 9.30397 25.6706 8.17289C24.3261 7.19411 22.9022 6.73387 21.3273 7.51349C20.5929 7.87694 20.8986 7.94026 20.0788 7.74919C20.4261 7.23037 21.3287 6.05829 21.3287 5.4053C21.3287 5.18467 21.0029 4.93641 20.7817 4.93641C20.2601 4.93641 20.1357 5.37099 19.9494 5.74477C19.6177 6.40974 19.1134 7.15338 18.5416 7.61809C18.215 7.88363 17.4016 7.74891 16.9536 7.74891C17.0758 7.49452 17.9776 4.54591 16.8755 4.54591C16.114 4.54591 16.2105 5.33975 16.1062 5.96429C16.0474 6.31602 15.9999 6.55228 15.9324 6.88421C15.8675 7.20415 15.7729 7.45156 15.7034 7.74891H13.8284C13.7657 7.48001 13.6681 7.21335 13.6125 6.94892C13.5406 6.60556 13.4926 6.36149 13.4368 6.03095C13.3395 5.45523 13.398 4.54563 12.7347 4.54563C12.4003 4.54563 12.1096 4.78635 12.1096 5.09262C12.1096 5.70516 12.3933 7.36314 12.5785 7.74891C11.9322 7.74891 11.272 7.86243 10.915 7.53748C10.609 7.2591 10.2678 6.82647 10.031 6.46832C9.11585 5.08369 8.21294 3.10409 9.6991 1.74457C11.1005 0.462867 11.2274 1.8196 12.7255 1.78167C13.5632 1.76047 14.0505 1.18642 14.7659 1.18642C15.4672 1.18642 15.8965 1.7164 16.7455 1.77776C18.225 1.88459 18.7374 0.16887 20.17 2.11053C20.4015 2.42433 20.4297 2.49769 20.5446 2.90773C20.7616 3.68149 21.797 3.60255 21.797 2.90521C21.797 2.67314 21.5491 2.05056 21.4464 1.84945C21.2977 1.55796 21.0514 1.24862 20.8595 1.02994C20.2367 0.320889 19.5329 0.0143407 18.5157 0.0143407C17.7419 0.0143407 17.4462 0.561331 16.7969 0.561331C16.3846 0.561331 15.9255 0.0143407 14.5311 0.0143407C13.7043 0.0143407 13.1699 0.561331 12.7342 0.561331C12.123 0.561331 10.966 -0.575884 9.43495 0.386997C7.98589 1.29827 7.40877 2.96519 7.84196 4.67226C8.14488 5.8661 8.79228 6.76232 9.4528 7.74891L9.45224 7.74946Z" fill="#4DC8F4"/>
</svg>
