<svg width="15" height="15" viewBox="0 0 15 15" fill="none" xmlns="http://www.w3.org/2000/svg">
<path fill-rule="evenodd" clip-rule="evenodd" d="M1.25989 11.279V3.72041C1.25989 2.38652 2.38707 1.25953 3.72077 1.25953H11.2794C12.6133 1.25953 13.7403 2.38671 13.7403 3.72041V11.279C13.7403 12.6129 12.6131 13.7399 11.2794 13.7399H3.72077C2.38689 13.7399 1.25989 12.6127 1.25989 11.279ZM12.51 3.42735C12.51 2.76395 11.7483 2.19145 11.0167 2.66632C10.8816 2.75413 10.7791 2.89503 10.7025 3.0552C10.5884 3.29408 10.5971 3.64278 10.7315 3.88767C10.7658 3.95039 10.8487 4.05475 10.8945 4.10547C10.9329 4.14765 11.0365 4.22437 11.0938 4.25782C11.6836 4.60325 12.5102 4.18892 12.5102 3.42735H12.51ZM5.00994 7.529C5.00994 6.11112 6.11148 5.00939 7.52954 5.00939C8.8687 5.00939 9.99043 6.11639 9.99043 7.529C9.99043 8.86816 8.88343 9.98988 7.47082 9.98988C6.13693 9.98988 5.00994 8.8627 5.00994 7.529ZM3.75023 7.32392C3.75023 8.13167 3.8044 8.36456 4.10583 9.10705C4.24037 9.43847 4.58343 9.90134 4.84104 10.159L5.32028 10.5586C5.49826 10.6815 5.69643 10.8144 5.89295 10.8942C6.66216 11.2065 6.80815 11.2498 7.67608 11.2498C8.56 11.2498 9.53883 10.7669 10.1599 10.1593C10.6102 9.71863 10.9703 9.07105 11.1271 8.46056C11.4167 7.33192 11.213 6.28419 10.5711 5.33737C10.3308 4.98303 10.0197 4.69633 9.68118 4.44017C9.52883 4.32491 9.28067 4.17565 9.10777 4.10547C8.36584 3.80422 8.13258 3.74986 7.32465 3.74986C6.44164 3.74986 5.45863 4.22328 4.84123 4.84068L4.44071 5.31919C4.07238 5.80587 3.75041 6.66525 3.75041 7.32411L3.75023 7.32392ZM0.000181803 3.54461V11.4548C0.000181803 12.3224 0.524683 13.3998 1.20826 13.9968C1.25589 14.0383 1.27916 14.0708 1.32552 14.1141C1.81966 14.5764 2.84939 15 3.54515 15H11.4554C11.7101 15 11.9944 14.9307 12.2113 14.8771C12.8104 14.7289 13.3329 14.4204 13.7768 14.011C14.029 13.7786 14.0841 13.7196 14.3057 13.4265C14.5235 13.1387 14.7813 12.6004 14.8715 12.2346C14.9278 12.0057 15.0002 11.7188 15.0002 11.455V3.54479C15.0002 2.94448 14.6726 2.06055 14.3184 1.58987L14.0112 1.22335C13.7788 0.97119 13.7197 0.916104 13.4267 0.694487C13.2501 0.560862 13.0789 0.475414 12.8713 0.371059C12.4964 0.18253 11.8968 0 11.4552 0H3.54497C3.29027 0 3.00593 0.0692669 2.78904 0.122899C2.32453 0.237798 1.69295 0.557589 1.34061 0.871744C1.29316 0.914104 1.27007 0.946101 1.22353 0.989007L0.885925 1.32534C0.585223 1.64659 0.237798 2.32308 0.128716 2.7654C0.0723575 2.99429 0 3.28118 0 3.54497L0.000181803 3.54461Z" fill="white"/>
</svg>
