<svg width="15" height="15" viewBox="0 0 15 15" fill="none" xmlns="http://www.w3.org/2000/svg">
<g clip-path="url(#clip0_18_1041)">
<path fill-rule="evenodd" clip-rule="evenodd" d="M1.77379 0.976686H3.74451L4.31692 1.79305C4.34077 1.82644 4.35917 1.85915 4.38507 1.8939L5.31728 3.22408C5.36838 3.29426 5.40791 3.36104 5.4597 3.42919C5.51149 3.49801 5.55442 3.5648 5.6028 3.63294L5.9919 4.19172C6.09616 4.34913 6.21337 4.497 6.31831 4.65374C6.52547 4.96379 6.75307 5.2609 6.95818 5.57164L7.1006 5.77607C7.40862 6.22105 7.73162 6.65649 8.03145 7.10692C8.0553 7.14304 8.07643 7.16961 8.10096 7.20641C8.12617 7.24457 8.14934 7.27592 8.17455 7.31135C8.31289 7.50761 8.46144 7.73453 8.60386 7.92397C8.82737 8.22244 9.02908 8.53658 9.24442 8.84119L10.0328 9.96761C10.1766 10.17 10.3129 10.3819 10.4621 10.5802C10.5623 10.7138 10.6489 10.8548 10.7477 10.9891C10.7722 11.0225 10.794 11.0525 10.8179 11.0879C11.0257 11.4014 11.2506 11.7005 11.4618 12.0119L12.0342 12.8283C12.0588 12.8658 12.0792 12.8903 12.1037 12.9278C12.1296 12.9673 12.1494 12.9946 12.1773 13.0327L12.2468 13.1322C12.2727 13.1697 12.2932 13.1983 12.3198 13.2372C12.3695 13.3087 12.4138 13.3694 12.4622 13.4416C12.486 13.4777 12.5071 13.505 12.5317 13.5411C12.5562 13.5772 12.5807 13.6099 12.6066 13.6447L12.7497 13.8491C12.7763 13.8879 12.7981 13.9166 12.8227 13.954C12.8356 13.9731 12.8438 13.9861 12.856 14.0051C12.871 14.0276 12.8826 14.0399 12.8956 14.0597H10.9153C10.8499 13.9356 10.747 13.8225 10.6707 13.7033L10.3456 13.2399C10.3238 13.2044 10.2993 13.1731 10.2754 13.1411C10.2489 13.105 10.2298 13.0709 10.2032 13.0348L9.84681 12.5278C9.83386 12.5087 9.82432 12.4971 9.81137 12.4787C9.79434 12.4535 9.79161 12.4467 9.77389 12.4228C9.48087 12.0187 9.20353 11.6051 8.91596 11.1969L8.77354 10.9925C8.72584 10.9223 8.67882 10.8596 8.63112 10.7881L7.05836 8.54067C7.03451 8.50728 7.01611 8.47457 6.99021 8.43982C6.89004 8.30625 6.80418 8.16383 6.70469 8.03095L6.56159 7.8272C6.53842 7.79177 6.51389 7.7577 6.48799 7.72294C6.24199 7.38835 6.01371 7.03946 5.77316 6.70078L5.63074 6.49567C5.60621 6.46228 5.5844 6.43229 5.56055 6.39686L5.05901 5.67794C4.92204 5.48373 4.76735 5.24795 4.6297 5.06533C4.41096 4.77367 4.20244 4.44862 3.98847 4.14811C3.8917 4.01114 3.75269 3.82919 3.66615 3.69086C3.54485 3.49665 3.40107 3.31539 3.27296 3.12663C3.25865 3.1055 3.25047 3.09665 3.23752 3.07825C3.22457 3.05985 3.21299 3.04077 3.20004 3.02169L1.77379 0.975323V0.976686ZM12.9371 0.00018239H14.1998C14.1658 0.0649192 13.9055 0.349761 13.8598 0.401551L13.4918 0.831539C13.4905 0.832902 13.4891 0.834946 13.4877 0.836309C13.4864 0.837672 13.485 0.839716 13.4837 0.841079C13.4816 0.843124 13.4768 0.849257 13.4748 0.851301C13.455 0.873107 13.4496 0.880603 13.4319 0.902409L13.3433 1.0019C13.2833 1.06323 13.2336 1.13682 13.1743 1.19884L13.0884 1.30037C13.0707 1.32354 13.0612 1.32899 13.0434 1.34875L12.9194 1.49731C12.9024 1.51979 12.8915 1.52661 12.8751 1.54705C12.8581 1.56818 12.8567 1.57226 12.8363 1.59271L12.4056 2.09152C12.3872 2.11469 12.3831 2.12014 12.3627 2.14195C12.2298 2.28505 12.1078 2.43769 11.9824 2.58761L11.7671 2.83225C11.7494 2.85201 11.7433 2.86291 11.7249 2.88404C11.7058 2.90584 11.7017 2.9147 11.6826 2.93583L11.0012 3.72834C10.8792 3.87962 10.7436 4.02136 10.6175 4.1706L10.0676 4.81251C9.95039 4.95153 9.75345 5.18935 9.63624 5.31064C9.52858 5.42104 9.36912 5.62888 9.256 5.75631L8.92073 6.14405C8.86962 6.20469 8.7899 6.28101 8.74696 6.34507C8.76127 6.40572 8.97593 6.68783 9.02499 6.76211L10.5998 9.05448C10.6202 9.08241 10.6298 9.10013 10.6495 9.12671L10.7872 9.32637C10.8485 9.41905 10.9092 9.50559 10.9712 9.59281C11.0039 9.63915 11.0318 9.68549 11.0666 9.73183C11.1967 9.90696 11.316 10.0903 11.4366 10.2722C11.6335 10.5693 11.8448 10.8542 12.041 11.1506C12.056 11.1731 12.0697 11.1949 12.0867 11.218C12.1215 11.2644 12.1508 11.31 12.1821 11.3577L13.1313 12.7363C13.1402 12.7492 13.1429 12.7561 13.1532 12.771C13.1688 12.7949 13.1825 12.8133 13.2002 12.8371C13.2206 12.8651 13.2302 12.8828 13.2499 12.9094L13.8503 13.7823C13.9375 13.922 14.0377 14.0515 14.129 14.1884L14.5004 14.7275C14.5372 14.7786 14.6653 14.9496 14.6789 14.9994H10.2959C10.2816 14.9462 9.91904 14.4433 9.86044 14.3554L8.61408 12.5421C8.59228 12.5101 8.57388 12.4876 8.55207 12.4542L8.05121 11.725C8.00624 11.6644 7.9708 11.6037 7.92515 11.541L7.36705 10.7288C7.34592 10.6988 7.32821 10.6749 7.30504 10.6402C7.0202 10.2129 6.71832 9.79861 6.43416 9.37135C6.41167 9.33727 6.39395 9.31342 6.37215 9.28276C6.35511 9.25891 6.32376 9.2187 6.31559 9.18872C6.26516 9.20235 6.11184 9.41291 6.06959 9.45857L5.87265 9.68413C5.85493 9.70389 5.85357 9.7107 5.83517 9.73115L5.32682 10.3206C5.31046 10.3417 5.30297 10.3458 5.28661 10.3649C5.25867 10.3983 5.23687 10.4242 5.21029 10.4576L3.33429 12.6361C3.31384 12.6572 3.31248 12.6613 3.29613 12.6825L2.86546 13.1813C2.74211 13.3196 2.59288 13.5118 2.47567 13.6365L1.57549 14.6791C1.55845 14.7002 1.55709 14.7043 1.53665 14.7247L1.4576 14.814C1.40445 14.8767 1.34993 14.9312 1.30496 14.9987H0.00068144C0.0156731 14.9435 0.139014 14.8344 0.179219 14.7827C0.288931 14.6402 0.498814 14.4147 0.626925 14.2634L0.712105 14.1605C0.743451 14.1251 0.775479 14.0924 0.805462 14.0569C0.83749 14.0188 0.86134 13.9847 0.894731 13.9493C1.04397 13.7925 1.19388 13.5929 1.34039 13.4286L3.89307 10.4623C3.91283 10.4398 3.91692 10.4378 3.93668 10.4119C3.99256 10.3397 4.0607 10.279 4.11658 10.2068C4.2222 10.0705 4.6481 9.58259 4.78916 9.4245C4.80824 9.40269 4.81029 9.3952 4.83141 9.37271C4.91182 9.29025 4.98065 9.19553 5.05697 9.11035C5.17894 8.97338 5.29138 8.82551 5.41813 8.69263C5.43925 8.67083 5.44198 8.66265 5.46038 8.64084L5.72546 8.33351L5.70093 8.30148C5.68934 8.28513 5.6873 8.28308 5.67708 8.26877C5.66004 8.24561 5.64641 8.22448 5.63142 8.20131L4.68694 6.82685C4.67127 6.803 4.66037 6.78596 4.64538 6.76484L3.93055 5.72428C3.81402 5.55256 3.69817 5.3747 3.57415 5.20775C3.51078 5.12257 3.45899 5.03194 3.39493 4.94607C3.36086 4.90042 3.33497 4.85681 3.30362 4.81183L2.94723 4.2953C2.93156 4.27281 2.91861 4.25237 2.90225 4.22784L1.68929 2.46495C1.6743 2.44246 1.66067 2.42066 1.64363 2.39817C1.42625 2.10311 1.23681 1.78692 1.02012 1.49185C0.833401 1.23768 0.6719 0.967146 0.485185 0.712969L0.125385 0.190304C0.0879058 0.134426 0.0156731 0.0581048 0 -0.00322481H4.38302C4.41709 0.0608305 4.45662 0.113301 4.4975 0.173268L4.73601 0.516714C4.97111 0.839716 5.20893 1.23223 5.44266 1.54705L6.21201 2.66461C6.23245 2.6946 6.24744 2.71981 6.26857 2.74843L7.09856 3.95526C7.20282 4.09359 7.29345 4.24147 7.39226 4.38389L8.15616 5.49736C8.20045 5.46738 8.21203 5.43807 8.24747 5.40128C8.27677 5.37061 8.30403 5.33995 8.3306 5.30587C8.40965 5.20434 8.50301 5.11507 8.58274 5.01354C8.68904 4.87793 8.8117 4.76072 8.91664 4.62443L10.255 3.07143C10.3702 2.9222 10.5426 2.73616 10.6652 2.59034L11.4189 1.72014C11.5245 1.58385 11.6465 1.46596 11.7514 1.32967L12.3375 0.648232C12.4165 0.546697 12.5065 0.454703 12.5896 0.355894C12.6196 0.320459 12.6434 0.295246 12.6734 0.261174L12.7988 0.113983C12.8397 0.0608305 12.8683 0.00290815 12.9385 -0.00390625L12.9371 0.00018239Z" fill="white"/>
</g>
<defs>
<clipPath id="clip0_18_1041">
<rect width="14.6789" height="15" fill="white"/>
</clipPath>
</defs>
</svg>
